<mxfile host="app.diagrams.net" agent="Mozilla/5.0 (Windows NT 10.0; Win64; x64) AppleWebKit/537.36 (KHTML, like Gecko) Chrome/141.0.0.0 Safari/537.36" version="28.2.7">
  <diagram name="Halaman-1" id="JnDKs1UsKrLEIu2V2zSq">
    <mxGraphModel dx="9910" dy="4370" grid="0" gridSize="10" guides="1" tooltips="1" connect="1" arrows="1" fold="1" page="0" pageScale="1" pageWidth="827" pageHeight="1169" math="0" shadow="0">
      <root>
        <mxCell id="0" />
        <mxCell id="1" parent="0" />
        <mxCell id="1Rzcqz73caveoxo0MW48-3" value="" style="edgeStyle=orthogonalEdgeStyle;rounded=0;orthogonalLoop=1;jettySize=auto;html=1;" edge="1" parent="1" source="1Rzcqz73caveoxo0MW48-1" target="1Rzcqz73caveoxo0MW48-2">
          <mxGeometry relative="1" as="geometry" />
        </mxCell>
        <mxCell id="1Rzcqz73caveoxo0MW48-1" value="start" style="ellipse;whiteSpace=wrap;html=1;" vertex="1" parent="1">
          <mxGeometry x="340" y="230" width="120" height="80" as="geometry" />
        </mxCell>
        <mxCell id="1Rzcqz73caveoxo0MW48-4" style="edgeStyle=orthogonalEdgeStyle;rounded=0;orthogonalLoop=1;jettySize=auto;html=1;exitX=1;exitY=1;exitDx=0;exitDy=0;" edge="1" parent="1" source="1Rzcqz73caveoxo0MW48-2">
          <mxGeometry relative="1" as="geometry">
            <mxPoint x="480" y="439" as="targetPoint" />
          </mxGeometry>
        </mxCell>
        <mxCell id="1Rzcqz73caveoxo0MW48-6" value="" style="edgeStyle=orthogonalEdgeStyle;rounded=0;orthogonalLoop=1;jettySize=auto;html=1;" edge="1" parent="1" source="1Rzcqz73caveoxo0MW48-2" target="1Rzcqz73caveoxo0MW48-5">
          <mxGeometry relative="1" as="geometry" />
        </mxCell>
        <mxCell id="1Rzcqz73caveoxo0MW48-2" value="Menu Pra-login&lt;div&gt;1. Login&lt;/div&gt;&lt;div&gt;2.Regis&lt;/div&gt;&lt;div&gt;3.Keluar&lt;/div&gt;" style="shape=parallelogram;perimeter=parallelogramPerimeter;whiteSpace=wrap;html=1;fixedSize=1;" vertex="1" parent="1">
          <mxGeometry x="330" y="360" width="140" height="90" as="geometry" />
        </mxCell>
        <mxCell id="1Rzcqz73caveoxo0MW48-9" value="" style="edgeStyle=orthogonalEdgeStyle;rounded=0;orthogonalLoop=1;jettySize=auto;html=1;" edge="1" parent="1" source="1Rzcqz73caveoxo0MW48-5" target="1Rzcqz73caveoxo0MW48-8">
          <mxGeometry relative="1" as="geometry" />
        </mxCell>
        <mxCell id="1Rzcqz73caveoxo0MW48-5" value="input opsi" style="shape=parallelogram;perimeter=parallelogramPerimeter;whiteSpace=wrap;html=1;fixedSize=1;" vertex="1" parent="1">
          <mxGeometry x="340" y="500" width="120" height="60" as="geometry" />
        </mxCell>
        <mxCell id="1Rzcqz73caveoxo0MW48-7" value="" style="endArrow=classic;html=1;rounded=0;entryX=0;entryY=0;entryDx=0;entryDy=0;" edge="1" parent="1" target="1Rzcqz73caveoxo0MW48-5">
          <mxGeometry width="50" height="50" relative="1" as="geometry">
            <mxPoint x="330" y="509" as="sourcePoint" />
            <mxPoint x="350" y="510" as="targetPoint" />
          </mxGeometry>
        </mxCell>
        <mxCell id="1Rzcqz73caveoxo0MW48-11" value="" style="edgeStyle=orthogonalEdgeStyle;rounded=0;orthogonalLoop=1;jettySize=auto;html=1;" edge="1" parent="1" source="1Rzcqz73caveoxo0MW48-8" target="1Rzcqz73caveoxo0MW48-10">
          <mxGeometry relative="1" as="geometry" />
        </mxCell>
        <mxCell id="1Rzcqz73caveoxo0MW48-71" value="true" style="edgeLabel;html=1;align=center;verticalAlign=middle;resizable=0;points=[];" vertex="1" connectable="0" parent="1Rzcqz73caveoxo0MW48-11">
          <mxGeometry x="-0.2659" relative="1" as="geometry">
            <mxPoint as="offset" />
          </mxGeometry>
        </mxCell>
        <mxCell id="1Rzcqz73caveoxo0MW48-24" value="" style="edgeStyle=orthogonalEdgeStyle;rounded=0;orthogonalLoop=1;jettySize=auto;html=1;" edge="1" parent="1" source="1Rzcqz73caveoxo0MW48-8" target="1Rzcqz73caveoxo0MW48-23">
          <mxGeometry relative="1" as="geometry" />
        </mxCell>
        <mxCell id="1Rzcqz73caveoxo0MW48-70" value="false" style="edgeLabel;html=1;align=center;verticalAlign=middle;resizable=0;points=[];" vertex="1" connectable="0" parent="1Rzcqz73caveoxo0MW48-24">
          <mxGeometry x="-0.1527" relative="1" as="geometry">
            <mxPoint as="offset" />
          </mxGeometry>
        </mxCell>
        <mxCell id="1Rzcqz73caveoxo0MW48-8" value="opsi == 1" style="rhombus;whiteSpace=wrap;html=1;" vertex="1" parent="1">
          <mxGeometry x="355" y="610" width="90" height="80" as="geometry" />
        </mxCell>
        <mxCell id="1Rzcqz73caveoxo0MW48-13" value="" style="edgeStyle=orthogonalEdgeStyle;rounded=0;orthogonalLoop=1;jettySize=auto;html=1;" edge="1" parent="1" source="1Rzcqz73caveoxo0MW48-10" target="1Rzcqz73caveoxo0MW48-12">
          <mxGeometry relative="1" as="geometry" />
        </mxCell>
        <mxCell id="1Rzcqz73caveoxo0MW48-10" value="username&lt;br&gt;password" style="rounded=0;whiteSpace=wrap;html=1;" vertex="1" parent="1">
          <mxGeometry x="340" y="740" width="120" height="60" as="geometry" />
        </mxCell>
        <mxCell id="1Rzcqz73caveoxo0MW48-16" value="" style="edgeStyle=orthogonalEdgeStyle;rounded=0;orthogonalLoop=1;jettySize=auto;html=1;" edge="1" parent="1" source="1Rzcqz73caveoxo0MW48-12" target="1Rzcqz73caveoxo0MW48-15">
          <mxGeometry relative="1" as="geometry" />
        </mxCell>
        <mxCell id="1Rzcqz73caveoxo0MW48-12" value="input user&amp;amp;pass" style="shape=parallelogram;perimeter=parallelogramPerimeter;whiteSpace=wrap;html=1;fixedSize=1;" vertex="1" parent="1">
          <mxGeometry x="340" y="860" width="120" height="60" as="geometry" />
        </mxCell>
        <mxCell id="1Rzcqz73caveoxo0MW48-14" value="" style="endArrow=classic;html=1;rounded=0;entryX=0;entryY=0;entryDx=0;entryDy=0;" edge="1" parent="1" target="1Rzcqz73caveoxo0MW48-12">
          <mxGeometry width="50" height="50" relative="1" as="geometry">
            <mxPoint x="330" y="869" as="sourcePoint" />
            <mxPoint x="350" y="870" as="targetPoint" />
          </mxGeometry>
        </mxCell>
        <mxCell id="1Rzcqz73caveoxo0MW48-20" style="edgeStyle=orthogonalEdgeStyle;rounded=0;orthogonalLoop=1;jettySize=auto;html=1;exitX=0;exitY=0.5;exitDx=0;exitDy=0;entryX=0;entryY=0.5;entryDx=0;entryDy=0;" edge="1" parent="1" source="1Rzcqz73caveoxo0MW48-15" target="1Rzcqz73caveoxo0MW48-2">
          <mxGeometry relative="1" as="geometry">
            <Array as="points">
              <mxPoint x="100" y="1035" />
              <mxPoint x="100" y="405" />
            </Array>
          </mxGeometry>
        </mxCell>
        <mxCell id="1Rzcqz73caveoxo0MW48-22" value="false" style="edgeLabel;html=1;align=center;verticalAlign=middle;resizable=0;points=[];" vertex="1" connectable="0" parent="1Rzcqz73caveoxo0MW48-20">
          <mxGeometry x="-0.7652" relative="1" as="geometry">
            <mxPoint as="offset" />
          </mxGeometry>
        </mxCell>
        <mxCell id="1Rzcqz73caveoxo0MW48-85" value="" style="edgeStyle=orthogonalEdgeStyle;rounded=0;orthogonalLoop=1;jettySize=auto;html=1;" edge="1" parent="1" source="1Rzcqz73caveoxo0MW48-15" target="1Rzcqz73caveoxo0MW48-84">
          <mxGeometry relative="1" as="geometry" />
        </mxCell>
        <mxCell id="1Rzcqz73caveoxo0MW48-15" value="user_data == password" style="rhombus;whiteSpace=wrap;html=1;" vertex="1" parent="1">
          <mxGeometry x="310" y="980" width="180" height="110" as="geometry" />
        </mxCell>
        <mxCell id="1Rzcqz73caveoxo0MW48-26" value="" style="edgeStyle=orthogonalEdgeStyle;rounded=0;orthogonalLoop=1;jettySize=auto;html=1;" edge="1" parent="1" source="1Rzcqz73caveoxo0MW48-23" target="1Rzcqz73caveoxo0MW48-25">
          <mxGeometry relative="1" as="geometry" />
        </mxCell>
        <mxCell id="1Rzcqz73caveoxo0MW48-68" value="true" style="edgeLabel;html=1;align=center;verticalAlign=middle;resizable=0;points=[];" vertex="1" connectable="0" parent="1Rzcqz73caveoxo0MW48-26">
          <mxGeometry x="-0.1718" y="-1" relative="1" as="geometry">
            <mxPoint as="offset" />
          </mxGeometry>
        </mxCell>
        <mxCell id="1Rzcqz73caveoxo0MW48-63" value="" style="edgeStyle=orthogonalEdgeStyle;rounded=0;orthogonalLoop=1;jettySize=auto;html=1;" edge="1" parent="1" source="1Rzcqz73caveoxo0MW48-23" target="1Rzcqz73caveoxo0MW48-62">
          <mxGeometry relative="1" as="geometry" />
        </mxCell>
        <mxCell id="1Rzcqz73caveoxo0MW48-69" value="false" style="edgeLabel;html=1;align=center;verticalAlign=middle;resizable=0;points=[];" vertex="1" connectable="0" parent="1Rzcqz73caveoxo0MW48-63">
          <mxGeometry x="-0.6518" relative="1" as="geometry">
            <mxPoint as="offset" />
          </mxGeometry>
        </mxCell>
        <mxCell id="1Rzcqz73caveoxo0MW48-23" value="opsi == 2" style="rhombus;whiteSpace=wrap;html=1;" vertex="1" parent="1">
          <mxGeometry x="717.5" y="610" width="90" height="80" as="geometry" />
        </mxCell>
        <mxCell id="1Rzcqz73caveoxo0MW48-28" value="" style="edgeStyle=orthogonalEdgeStyle;rounded=0;orthogonalLoop=1;jettySize=auto;html=1;" edge="1" parent="1" source="1Rzcqz73caveoxo0MW48-25" target="1Rzcqz73caveoxo0MW48-27">
          <mxGeometry relative="1" as="geometry" />
        </mxCell>
        <mxCell id="1Rzcqz73caveoxo0MW48-25" value="new_username&lt;br&gt;new_password" style="rounded=0;whiteSpace=wrap;html=1;" vertex="1" parent="1">
          <mxGeometry x="702.5" y="740" width="120" height="60" as="geometry" />
        </mxCell>
        <mxCell id="1Rzcqz73caveoxo0MW48-29" style="edgeStyle=orthogonalEdgeStyle;rounded=0;orthogonalLoop=1;jettySize=auto;html=1;exitX=1;exitY=0.75;exitDx=0;exitDy=0;" edge="1" parent="1" source="1Rzcqz73caveoxo0MW48-27">
          <mxGeometry relative="1" as="geometry">
            <mxPoint x="857.5" y="903.1428571428573" as="targetPoint" />
          </mxGeometry>
        </mxCell>
        <mxCell id="1Rzcqz73caveoxo0MW48-31" value="" style="edgeStyle=orthogonalEdgeStyle;rounded=0;orthogonalLoop=1;jettySize=auto;html=1;" edge="1" parent="1" source="1Rzcqz73caveoxo0MW48-27" target="1Rzcqz73caveoxo0MW48-30">
          <mxGeometry relative="1" as="geometry" />
        </mxCell>
        <mxCell id="1Rzcqz73caveoxo0MW48-27" value="input new_username&lt;div&gt;&amp;amp; new_pass&lt;/div&gt;" style="shape=parallelogram;perimeter=parallelogramPerimeter;whiteSpace=wrap;html=1;fixedSize=1;rounded=0;" vertex="1" parent="1">
          <mxGeometry x="680" y="860" width="165" height="60" as="geometry" />
        </mxCell>
        <mxCell id="1Rzcqz73caveoxo0MW48-33" value="" style="edgeStyle=orthogonalEdgeStyle;rounded=0;orthogonalLoop=1;jettySize=auto;html=1;" edge="1" parent="1" source="1Rzcqz73caveoxo0MW48-30" target="1Rzcqz73caveoxo0MW48-32">
          <mxGeometry relative="1" as="geometry" />
        </mxCell>
        <mxCell id="1Rzcqz73caveoxo0MW48-35" value="true" style="edgeLabel;html=1;align=center;verticalAlign=middle;resizable=0;points=[];" vertex="1" connectable="0" parent="1Rzcqz73caveoxo0MW48-33">
          <mxGeometry x="-0.0153" relative="1" as="geometry">
            <mxPoint as="offset" />
          </mxGeometry>
        </mxCell>
        <mxCell id="1Rzcqz73caveoxo0MW48-41" value="" style="edgeStyle=orthogonalEdgeStyle;rounded=0;orthogonalLoop=1;jettySize=auto;html=1;" edge="1" parent="1" source="1Rzcqz73caveoxo0MW48-30" target="1Rzcqz73caveoxo0MW48-40">
          <mxGeometry relative="1" as="geometry">
            <Array as="points">
              <mxPoint x="762.5" y="1100" />
              <mxPoint x="762.5" y="1100" />
            </Array>
          </mxGeometry>
        </mxCell>
        <mxCell id="1Rzcqz73caveoxo0MW48-42" value="false" style="edgeLabel;html=1;align=center;verticalAlign=middle;resizable=0;points=[];" vertex="1" connectable="0" parent="1Rzcqz73caveoxo0MW48-41">
          <mxGeometry x="-0.2444" relative="1" as="geometry">
            <mxPoint as="offset" />
          </mxGeometry>
        </mxCell>
        <mxCell id="1Rzcqz73caveoxo0MW48-30" value="&amp;nbsp;not username,&amp;nbsp;&lt;div&gt;password&lt;/div&gt;" style="rhombus;whiteSpace=wrap;html=1;" vertex="1" parent="1">
          <mxGeometry x="695" y="990" width="135" height="80" as="geometry" />
        </mxCell>
        <mxCell id="1Rzcqz73caveoxo0MW48-34" style="edgeStyle=orthogonalEdgeStyle;rounded=0;orthogonalLoop=1;jettySize=auto;html=1;exitX=1;exitY=1;exitDx=0;exitDy=0;" edge="1" parent="1" source="1Rzcqz73caveoxo0MW48-32">
          <mxGeometry relative="1" as="geometry">
            <mxPoint x="1037.5" y="1053.1428571428573" as="targetPoint" />
          </mxGeometry>
        </mxCell>
        <mxCell id="1Rzcqz73caveoxo0MW48-32" value="output user dan pass&amp;nbsp;&lt;div&gt;tidak boleh kosong&lt;/div&gt;" style="shape=parallelogram;perimeter=parallelogramPerimeter;whiteSpace=wrap;html=1;fixedSize=1;" vertex="1" parent="1">
          <mxGeometry x="877.5" y="1000" width="150" height="60" as="geometry" />
        </mxCell>
        <mxCell id="1Rzcqz73caveoxo0MW48-44" value="" style="edgeStyle=orthogonalEdgeStyle;rounded=0;orthogonalLoop=1;jettySize=auto;html=1;" edge="1" parent="1" source="1Rzcqz73caveoxo0MW48-40" target="1Rzcqz73caveoxo0MW48-43">
          <mxGeometry relative="1" as="geometry" />
        </mxCell>
        <mxCell id="1Rzcqz73caveoxo0MW48-46" value="false" style="edgeLabel;html=1;align=center;verticalAlign=middle;resizable=0;points=[];" vertex="1" connectable="0" parent="1Rzcqz73caveoxo0MW48-44">
          <mxGeometry x="-0.1228" relative="1" as="geometry">
            <mxPoint as="offset" />
          </mxGeometry>
        </mxCell>
        <mxCell id="1Rzcqz73caveoxo0MW48-48" value="" style="edgeStyle=orthogonalEdgeStyle;rounded=0;orthogonalLoop=1;jettySize=auto;html=1;" edge="1" parent="1" source="1Rzcqz73caveoxo0MW48-40" target="1Rzcqz73caveoxo0MW48-47">
          <mxGeometry relative="1" as="geometry" />
        </mxCell>
        <mxCell id="1Rzcqz73caveoxo0MW48-49" value="true" style="edgeLabel;html=1;align=center;verticalAlign=middle;resizable=0;points=[];" vertex="1" connectable="0" parent="1Rzcqz73caveoxo0MW48-48">
          <mxGeometry x="-0.1918" y="-1" relative="1" as="geometry">
            <mxPoint as="offset" />
          </mxGeometry>
        </mxCell>
        <mxCell id="1Rzcqz73caveoxo0MW48-40" value="new_user in data_user" style="rhombus;whiteSpace=wrap;html=1;" vertex="1" parent="1">
          <mxGeometry x="695" y="1140" width="135" height="80" as="geometry" />
        </mxCell>
        <mxCell id="1Rzcqz73caveoxo0MW48-53" value="" style="edgeStyle=orthogonalEdgeStyle;rounded=0;orthogonalLoop=1;jettySize=auto;html=1;" edge="1" parent="1" source="1Rzcqz73caveoxo0MW48-43" target="1Rzcqz73caveoxo0MW48-52">
          <mxGeometry relative="1" as="geometry" />
        </mxCell>
        <mxCell id="1Rzcqz73caveoxo0MW48-61" value="true" style="edgeLabel;html=1;align=center;verticalAlign=middle;resizable=0;points=[];" vertex="1" connectable="0" parent="1Rzcqz73caveoxo0MW48-53">
          <mxGeometry x="-0.1763" relative="1" as="geometry">
            <mxPoint as="offset" />
          </mxGeometry>
        </mxCell>
        <mxCell id="1Rzcqz73caveoxo0MW48-58" value="" style="edgeStyle=orthogonalEdgeStyle;rounded=0;orthogonalLoop=1;jettySize=auto;html=1;" edge="1" parent="1" source="1Rzcqz73caveoxo0MW48-43" target="1Rzcqz73caveoxo0MW48-57">
          <mxGeometry relative="1" as="geometry" />
        </mxCell>
        <mxCell id="1Rzcqz73caveoxo0MW48-60" value="false" style="edgeLabel;html=1;align=center;verticalAlign=middle;resizable=0;points=[];" vertex="1" connectable="0" parent="1Rzcqz73caveoxo0MW48-58">
          <mxGeometry x="-0.0918" y="-1" relative="1" as="geometry">
            <mxPoint as="offset" />
          </mxGeometry>
        </mxCell>
        <mxCell id="1Rzcqz73caveoxo0MW48-43" value="new_pass" style="rhombus;whiteSpace=wrap;html=1;" vertex="1" parent="1">
          <mxGeometry x="695" y="1280" width="135" height="80" as="geometry" />
        </mxCell>
        <mxCell id="1Rzcqz73caveoxo0MW48-50" style="edgeStyle=orthogonalEdgeStyle;rounded=0;orthogonalLoop=1;jettySize=auto;html=1;exitX=1;exitY=1;exitDx=0;exitDy=0;" edge="1" parent="1" source="1Rzcqz73caveoxo0MW48-47">
          <mxGeometry relative="1" as="geometry">
            <mxPoint x="1067.5" y="1203.157894736842" as="targetPoint" />
          </mxGeometry>
        </mxCell>
        <mxCell id="1Rzcqz73caveoxo0MW48-47" value="output data sudah&lt;div&gt;&amp;nbsp;terdaftar&lt;/div&gt;" style="shape=parallelogram;perimeter=parallelogramPerimeter;whiteSpace=wrap;html=1;fixedSize=1;" vertex="1" parent="1">
          <mxGeometry x="907.5" y="1150" width="150" height="60" as="geometry" />
        </mxCell>
        <mxCell id="1Rzcqz73caveoxo0MW48-55" value="" style="edgeStyle=orthogonalEdgeStyle;rounded=0;orthogonalLoop=1;jettySize=auto;html=1;" edge="1" parent="1" source="1Rzcqz73caveoxo0MW48-52" target="1Rzcqz73caveoxo0MW48-54">
          <mxGeometry relative="1" as="geometry" />
        </mxCell>
        <mxCell id="1Rzcqz73caveoxo0MW48-52" value="pass &amp;lt; 4 karakter" style="rounded=0;whiteSpace=wrap;html=1;" vertex="1" parent="1">
          <mxGeometry x="922.5" y="1290" width="120" height="60" as="geometry" />
        </mxCell>
        <mxCell id="1Rzcqz73caveoxo0MW48-56" style="edgeStyle=orthogonalEdgeStyle;rounded=0;orthogonalLoop=1;jettySize=auto;html=1;exitX=1;exitY=1;exitDx=0;exitDy=0;" edge="1" parent="1" source="1Rzcqz73caveoxo0MW48-54">
          <mxGeometry relative="1" as="geometry">
            <mxPoint x="1247.4999999999998" y="1341.7391304347827" as="targetPoint" />
          </mxGeometry>
        </mxCell>
        <mxCell id="1Rzcqz73caveoxo0MW48-54" value="output minimal 4 karakter" style="shape=parallelogram;perimeter=parallelogramPerimeter;whiteSpace=wrap;html=1;fixedSize=1;rounded=0;" vertex="1" parent="1">
          <mxGeometry x="1122.5" y="1290" width="120" height="60" as="geometry" />
        </mxCell>
        <mxCell id="1Rzcqz73caveoxo0MW48-59" style="edgeStyle=orthogonalEdgeStyle;rounded=0;orthogonalLoop=1;jettySize=auto;html=1;exitX=1;exitY=1;exitDx=0;exitDy=0;" edge="1" parent="1" source="1Rzcqz73caveoxo0MW48-57">
          <mxGeometry relative="1" as="geometry">
            <mxPoint x="847.5" y="1503.4782608695655" as="targetPoint" />
          </mxGeometry>
        </mxCell>
        <mxCell id="1Rzcqz73caveoxo0MW48-98" style="edgeStyle=orthogonalEdgeStyle;rounded=0;orthogonalLoop=1;jettySize=auto;html=1;exitX=0.5;exitY=1;exitDx=0;exitDy=0;entryX=0;entryY=0.5;entryDx=0;entryDy=0;" edge="1" parent="1" source="1Rzcqz73caveoxo0MW48-57" target="1Rzcqz73caveoxo0MW48-2">
          <mxGeometry relative="1" as="geometry">
            <Array as="points">
              <mxPoint x="762" y="1600" />
              <mxPoint x="100" y="1600" />
              <mxPoint x="100" y="405" />
            </Array>
          </mxGeometry>
        </mxCell>
        <mxCell id="1Rzcqz73caveoxo0MW48-57" value="output regis berhasil" style="shape=parallelogram;perimeter=parallelogramPerimeter;whiteSpace=wrap;html=1;fixedSize=1;" vertex="1" parent="1">
          <mxGeometry x="685" y="1450" width="155" height="60" as="geometry" />
        </mxCell>
        <mxCell id="1Rzcqz73caveoxo0MW48-65" value="" style="edgeStyle=orthogonalEdgeStyle;rounded=0;orthogonalLoop=1;jettySize=auto;html=1;" edge="1" parent="1" source="1Rzcqz73caveoxo0MW48-62" target="1Rzcqz73caveoxo0MW48-64">
          <mxGeometry relative="1" as="geometry" />
        </mxCell>
        <mxCell id="1Rzcqz73caveoxo0MW48-67" value="true" style="edgeLabel;html=1;align=center;verticalAlign=middle;resizable=0;points=[];" vertex="1" connectable="0" parent="1Rzcqz73caveoxo0MW48-65">
          <mxGeometry x="-0.2617" y="1" relative="1" as="geometry">
            <mxPoint as="offset" />
          </mxGeometry>
        </mxCell>
        <mxCell id="1Rzcqz73caveoxo0MW48-74" style="edgeStyle=orthogonalEdgeStyle;rounded=0;orthogonalLoop=1;jettySize=auto;html=1;exitX=1;exitY=0.5;exitDx=0;exitDy=0;entryX=0;entryY=0.5;entryDx=0;entryDy=0;" edge="1" parent="1" source="1Rzcqz73caveoxo0MW48-62" target="1Rzcqz73caveoxo0MW48-73">
          <mxGeometry relative="1" as="geometry" />
        </mxCell>
        <mxCell id="1Rzcqz73caveoxo0MW48-76" value="false" style="edgeLabel;html=1;align=center;verticalAlign=middle;resizable=0;points=[];" vertex="1" connectable="0" parent="1Rzcqz73caveoxo0MW48-74">
          <mxGeometry x="-0.2066" y="-1" relative="1" as="geometry">
            <mxPoint as="offset" />
          </mxGeometry>
        </mxCell>
        <mxCell id="1Rzcqz73caveoxo0MW48-62" value="opsi == 3" style="rhombus;whiteSpace=wrap;html=1;" vertex="1" parent="1">
          <mxGeometry x="1280" y="610" width="90" height="80" as="geometry" />
        </mxCell>
        <mxCell id="1Rzcqz73caveoxo0MW48-66" style="edgeStyle=orthogonalEdgeStyle;rounded=0;orthogonalLoop=1;jettySize=auto;html=1;exitX=1;exitY=1;exitDx=0;exitDy=0;" edge="1" parent="1" source="1Rzcqz73caveoxo0MW48-64">
          <mxGeometry relative="1" as="geometry">
            <mxPoint x="1390" y="831.6666666666667" as="targetPoint" />
          </mxGeometry>
        </mxCell>
        <mxCell id="1Rzcqz73caveoxo0MW48-77" style="edgeStyle=orthogonalEdgeStyle;rounded=0;orthogonalLoop=1;jettySize=auto;html=1;exitX=0.5;exitY=1;exitDx=0;exitDy=0;" edge="1" parent="1" source="1Rzcqz73caveoxo0MW48-64" target="1Rzcqz73caveoxo0MW48-78">
          <mxGeometry relative="1" as="geometry">
            <mxPoint x="1326" y="1732.666748046875" as="targetPoint" />
            <Array as="points">
              <mxPoint x="1325" y="1780" />
              <mxPoint x="400" y="1780" />
            </Array>
          </mxGeometry>
        </mxCell>
        <mxCell id="1Rzcqz73caveoxo0MW48-64" value="output program diakhiri" style="shape=parallelogram;perimeter=parallelogramPerimeter;whiteSpace=wrap;html=1;fixedSize=1;" vertex="1" parent="1">
          <mxGeometry x="1265" y="780" width="120" height="60" as="geometry" />
        </mxCell>
        <mxCell id="1Rzcqz73caveoxo0MW48-75" style="edgeStyle=orthogonalEdgeStyle;rounded=0;orthogonalLoop=1;jettySize=auto;html=1;exitX=1;exitY=0.5;exitDx=0;exitDy=0;" edge="1" parent="1" source="1Rzcqz73caveoxo0MW48-73" target="1Rzcqz73caveoxo0MW48-2">
          <mxGeometry relative="1" as="geometry">
            <mxPoint x="550" y="400" as="targetPoint" />
            <Array as="points">
              <mxPoint x="1620" y="650" />
              <mxPoint x="1620" y="410" />
            </Array>
          </mxGeometry>
        </mxCell>
        <mxCell id="1Rzcqz73caveoxo0MW48-73" value="output&lt;br&gt;&quot;opsi tidak valid&quot;" style="shape=parallelogram;perimeter=parallelogramPerimeter;whiteSpace=wrap;html=1;fixedSize=1;" vertex="1" parent="1">
          <mxGeometry x="1450" y="620" width="120" height="60" as="geometry" />
        </mxCell>
        <mxCell id="1Rzcqz73caveoxo0MW48-78" value="end" style="ellipse;whiteSpace=wrap;html=1;" vertex="1" parent="1">
          <mxGeometry x="340" y="1859.996748046875" width="120" height="80" as="geometry" />
        </mxCell>
        <mxCell id="1Rzcqz73caveoxo0MW48-88" style="edgeStyle=orthogonalEdgeStyle;rounded=0;orthogonalLoop=1;jettySize=auto;html=1;exitX=0;exitY=0.5;exitDx=0;exitDy=0;entryX=0.5;entryY=0;entryDx=0;entryDy=0;" edge="1" parent="1" source="1Rzcqz73caveoxo0MW48-84" target="1Rzcqz73caveoxo0MW48-86">
          <mxGeometry relative="1" as="geometry" />
        </mxCell>
        <mxCell id="1Rzcqz73caveoxo0MW48-96" value="true" style="edgeLabel;html=1;align=center;verticalAlign=middle;resizable=0;points=[];" vertex="1" connectable="0" parent="1Rzcqz73caveoxo0MW48-88">
          <mxGeometry x="-0.5419" relative="1" as="geometry">
            <mxPoint as="offset" />
          </mxGeometry>
        </mxCell>
        <mxCell id="1Rzcqz73caveoxo0MW48-89" style="edgeStyle=orthogonalEdgeStyle;rounded=0;orthogonalLoop=1;jettySize=auto;html=1;exitX=1;exitY=0.5;exitDx=0;exitDy=0;" edge="1" parent="1" source="1Rzcqz73caveoxo0MW48-84" target="1Rzcqz73caveoxo0MW48-87">
          <mxGeometry relative="1" as="geometry" />
        </mxCell>
        <mxCell id="1Rzcqz73caveoxo0MW48-97" value="false" style="edgeLabel;html=1;align=center;verticalAlign=middle;resizable=0;points=[];" vertex="1" connectable="0" parent="1Rzcqz73caveoxo0MW48-89">
          <mxGeometry x="-0.4556" relative="1" as="geometry">
            <mxPoint as="offset" />
          </mxGeometry>
        </mxCell>
        <mxCell id="1Rzcqz73caveoxo0MW48-84" value="pengguna = user&lt;div&gt;role_pengguna = pass&lt;/div&gt;" style="rhombus;whiteSpace=wrap;html=1;" vertex="1" parent="1">
          <mxGeometry x="312.5" y="1160" width="175" height="110" as="geometry" />
        </mxCell>
        <mxCell id="1Rzcqz73caveoxo0MW48-92" value="" style="edgeStyle=orthogonalEdgeStyle;rounded=0;orthogonalLoop=1;jettySize=auto;html=1;" edge="1" parent="1" source="1Rzcqz73caveoxo0MW48-86" target="1Rzcqz73caveoxo0MW48-90">
          <mxGeometry relative="1" as="geometry" />
        </mxCell>
        <mxCell id="1Rzcqz73caveoxo0MW48-94" style="edgeStyle=orthogonalEdgeStyle;rounded=0;orthogonalLoop=1;jettySize=auto;html=1;exitX=1;exitY=1;exitDx=0;exitDy=0;" edge="1" parent="1" source="1Rzcqz73caveoxo0MW48-86">
          <mxGeometry relative="1" as="geometry">
            <mxPoint x="330" y="1334.090909090909" as="targetPoint" />
          </mxGeometry>
        </mxCell>
        <mxCell id="1Rzcqz73caveoxo0MW48-86" value="input user = apoteker&lt;div&gt;pass = 1234&lt;/div&gt;" style="shape=parallelogram;perimeter=parallelogramPerimeter;whiteSpace=wrap;html=1;fixedSize=1;" vertex="1" parent="1">
          <mxGeometry x="145" y="1280" width="167.5" height="60" as="geometry" />
        </mxCell>
        <mxCell id="1Rzcqz73caveoxo0MW48-93" value="" style="edgeStyle=orthogonalEdgeStyle;rounded=0;orthogonalLoop=1;jettySize=auto;html=1;" edge="1" parent="1" source="1Rzcqz73caveoxo0MW48-87" target="1Rzcqz73caveoxo0MW48-91">
          <mxGeometry relative="1" as="geometry" />
        </mxCell>
        <mxCell id="1Rzcqz73caveoxo0MW48-95" style="edgeStyle=orthogonalEdgeStyle;rounded=0;orthogonalLoop=1;jettySize=auto;html=1;exitX=1;exitY=1;exitDx=0;exitDy=0;" edge="1" parent="1" source="1Rzcqz73caveoxo0MW48-87">
          <mxGeometry relative="1" as="geometry">
            <mxPoint x="660" y="1332.272727272727" as="targetPoint" />
          </mxGeometry>
        </mxCell>
        <mxCell id="1Rzcqz73caveoxo0MW48-87" value="input user = user&lt;div&gt;pass = pass_user&lt;/div&gt;" style="shape=parallelogram;perimeter=parallelogramPerimeter;whiteSpace=wrap;html=1;fixedSize=1;" vertex="1" parent="1">
          <mxGeometry x="500" y="1280" width="152.5" height="60" as="geometry" />
        </mxCell>
        <mxCell id="1Rzcqz73caveoxo0MW48-90" value="menu apoteker" style="shape=process;whiteSpace=wrap;html=1;backgroundOutline=1;" vertex="1" parent="1">
          <mxGeometry x="168.75" y="1420" width="120" height="60" as="geometry" />
        </mxCell>
        <mxCell id="1Rzcqz73caveoxo0MW48-91" value="menu user" style="shape=process;whiteSpace=wrap;html=1;backgroundOutline=1;" vertex="1" parent="1">
          <mxGeometry x="516.25" y="1420" width="120" height="60" as="geometry" />
        </mxCell>
        <mxCell id="1Rzcqz73caveoxo0MW48-101" value="" style="edgeStyle=orthogonalEdgeStyle;rounded=0;orthogonalLoop=1;jettySize=auto;html=1;" edge="1" parent="1" source="1Rzcqz73caveoxo0MW48-99" target="1Rzcqz73caveoxo0MW48-100">
          <mxGeometry relative="1" as="geometry" />
        </mxCell>
        <mxCell id="1Rzcqz73caveoxo0MW48-99" value="Menu apoteker" style="shape=process;whiteSpace=wrap;html=1;backgroundOutline=1;" vertex="1" parent="1">
          <mxGeometry x="340" y="2220" width="120" height="60" as="geometry" />
        </mxCell>
        <mxCell id="1Rzcqz73caveoxo0MW48-103" value="" style="edgeStyle=orthogonalEdgeStyle;rounded=0;orthogonalLoop=1;jettySize=auto;html=1;" edge="1" parent="1" source="1Rzcqz73caveoxo0MW48-100" target="1Rzcqz73caveoxo0MW48-102">
          <mxGeometry relative="1" as="geometry" />
        </mxCell>
        <mxCell id="1Rzcqz73caveoxo0MW48-181" style="edgeStyle=orthogonalEdgeStyle;rounded=0;orthogonalLoop=1;jettySize=auto;html=1;exitX=1;exitY=1;exitDx=0;exitDy=0;" edge="1" parent="1" source="1Rzcqz73caveoxo0MW48-100">
          <mxGeometry relative="1" as="geometry">
            <mxPoint x="510" y="2460" as="targetPoint" />
          </mxGeometry>
        </mxCell>
        <mxCell id="1Rzcqz73caveoxo0MW48-100" value="menu apoteker&lt;br&gt;1.tampil data obat&lt;div&gt;2. tambah data obat&lt;/div&gt;&lt;div&gt;3. edit data obat&lt;/div&gt;&lt;div&gt;4. hapus obat&lt;/div&gt;&lt;div&gt;5. logout&lt;/div&gt;" style="shape=parallelogram;perimeter=parallelogramPerimeter;whiteSpace=wrap;html=1;fixedSize=1;" vertex="1" parent="1">
          <mxGeometry x="310" y="2360" width="180" height="110" as="geometry" />
        </mxCell>
        <mxCell id="1Rzcqz73caveoxo0MW48-105" value="" style="edgeStyle=orthogonalEdgeStyle;rounded=0;orthogonalLoop=1;jettySize=auto;html=1;" edge="1" parent="1" source="1Rzcqz73caveoxo0MW48-102" target="1Rzcqz73caveoxo0MW48-104">
          <mxGeometry relative="1" as="geometry" />
        </mxCell>
        <mxCell id="1Rzcqz73caveoxo0MW48-166" value="true" style="edgeLabel;html=1;align=center;verticalAlign=middle;resizable=0;points=[];" vertex="1" connectable="0" parent="1Rzcqz73caveoxo0MW48-105">
          <mxGeometry x="-0.1938" relative="1" as="geometry">
            <mxPoint as="offset" />
          </mxGeometry>
        </mxCell>
        <mxCell id="1Rzcqz73caveoxo0MW48-107" value="" style="edgeStyle=orthogonalEdgeStyle;rounded=0;orthogonalLoop=1;jettySize=auto;html=1;" edge="1" parent="1" source="1Rzcqz73caveoxo0MW48-102" target="1Rzcqz73caveoxo0MW48-106">
          <mxGeometry relative="1" as="geometry" />
        </mxCell>
        <mxCell id="1Rzcqz73caveoxo0MW48-167" value="false" style="edgeLabel;html=1;align=center;verticalAlign=middle;resizable=0;points=[];" vertex="1" connectable="0" parent="1Rzcqz73caveoxo0MW48-107">
          <mxGeometry x="-0.0675" y="-2" relative="1" as="geometry">
            <mxPoint as="offset" />
          </mxGeometry>
        </mxCell>
        <mxCell id="1Rzcqz73caveoxo0MW48-102" value="opsi == 1" style="rhombus;whiteSpace=wrap;html=1;" vertex="1" parent="1">
          <mxGeometry x="360" y="2530" width="80" height="80" as="geometry" />
        </mxCell>
        <mxCell id="1Rzcqz73caveoxo0MW48-139" style="edgeStyle=orthogonalEdgeStyle;rounded=0;orthogonalLoop=1;jettySize=auto;html=1;exitX=0.5;exitY=1;exitDx=0;exitDy=0;entryX=0;entryY=0.5;entryDx=0;entryDy=0;" edge="1" parent="1" source="1Rzcqz73caveoxo0MW48-104" target="1Rzcqz73caveoxo0MW48-100">
          <mxGeometry relative="1" as="geometry">
            <Array as="points">
              <mxPoint x="400" y="3260" />
              <mxPoint x="220" y="3260" />
              <mxPoint x="220" y="2415" />
            </Array>
          </mxGeometry>
        </mxCell>
        <mxCell id="1Rzcqz73caveoxo0MW48-104" value="Tampilkan_obat" style="shape=process;whiteSpace=wrap;html=1;backgroundOutline=1;" vertex="1" parent="1">
          <mxGeometry x="340" y="2670" width="120" height="60" as="geometry" />
        </mxCell>
        <mxCell id="1Rzcqz73caveoxo0MW48-109" value="" style="edgeStyle=orthogonalEdgeStyle;rounded=0;orthogonalLoop=1;jettySize=auto;html=1;" edge="1" parent="1" source="1Rzcqz73caveoxo0MW48-106" target="1Rzcqz73caveoxo0MW48-108">
          <mxGeometry relative="1" as="geometry" />
        </mxCell>
        <mxCell id="1Rzcqz73caveoxo0MW48-170" value="true" style="edgeLabel;html=1;align=center;verticalAlign=middle;resizable=0;points=[];" vertex="1" connectable="0" parent="1Rzcqz73caveoxo0MW48-109">
          <mxGeometry x="-0.1927" relative="1" as="geometry">
            <mxPoint as="offset" />
          </mxGeometry>
        </mxCell>
        <mxCell id="1Rzcqz73caveoxo0MW48-111" value="" style="edgeStyle=orthogonalEdgeStyle;rounded=0;orthogonalLoop=1;jettySize=auto;html=1;exitX=1;exitY=0.5;exitDx=0;exitDy=0;" edge="1" parent="1" source="1Rzcqz73caveoxo0MW48-106" target="1Rzcqz73caveoxo0MW48-110">
          <mxGeometry relative="1" as="geometry">
            <mxPoint x="702.5" y="2570" as="sourcePoint" />
          </mxGeometry>
        </mxCell>
        <mxCell id="1Rzcqz73caveoxo0MW48-168" value="false" style="edgeLabel;html=1;align=center;verticalAlign=middle;resizable=0;points=[];" vertex="1" connectable="0" parent="1Rzcqz73caveoxo0MW48-111">
          <mxGeometry x="-0.2748" y="-2" relative="1" as="geometry">
            <mxPoint as="offset" />
          </mxGeometry>
        </mxCell>
        <mxCell id="1Rzcqz73caveoxo0MW48-106" value="opsi == 2" style="rhombus;whiteSpace=wrap;html=1;" vertex="1" parent="1">
          <mxGeometry x="572.5" y="2530" width="80" height="80" as="geometry" />
        </mxCell>
        <mxCell id="1Rzcqz73caveoxo0MW48-138" style="edgeStyle=orthogonalEdgeStyle;rounded=0;orthogonalLoop=1;jettySize=auto;html=1;exitX=0.5;exitY=1;exitDx=0;exitDy=0;entryX=0;entryY=0.5;entryDx=0;entryDy=0;" edge="1" parent="1" source="1Rzcqz73caveoxo0MW48-108" target="1Rzcqz73caveoxo0MW48-100">
          <mxGeometry relative="1" as="geometry">
            <Array as="points">
              <mxPoint x="613" y="3260" />
              <mxPoint x="220" y="3260" />
              <mxPoint x="220" y="2415" />
            </Array>
          </mxGeometry>
        </mxCell>
        <mxCell id="1Rzcqz73caveoxo0MW48-108" value="tambah_obat_baru" style="shape=process;whiteSpace=wrap;html=1;backgroundOutline=1;" vertex="1" parent="1">
          <mxGeometry x="538.75" y="2670" width="147.5" height="60" as="geometry" />
        </mxCell>
        <mxCell id="1Rzcqz73caveoxo0MW48-113" value="" style="edgeStyle=orthogonalEdgeStyle;rounded=0;orthogonalLoop=1;jettySize=auto;html=1;" edge="1" parent="1" source="1Rzcqz73caveoxo0MW48-110" target="1Rzcqz73caveoxo0MW48-112">
          <mxGeometry relative="1" as="geometry" />
        </mxCell>
        <mxCell id="1Rzcqz73caveoxo0MW48-171" value="true" style="edgeLabel;html=1;align=center;verticalAlign=middle;resizable=0;points=[];" vertex="1" connectable="0" parent="1Rzcqz73caveoxo0MW48-113">
          <mxGeometry x="-0.1198" relative="1" as="geometry">
            <mxPoint as="offset" />
          </mxGeometry>
        </mxCell>
        <mxCell id="1Rzcqz73caveoxo0MW48-142" value="" style="edgeStyle=orthogonalEdgeStyle;rounded=0;orthogonalLoop=1;jettySize=auto;html=1;" edge="1" parent="1" source="1Rzcqz73caveoxo0MW48-110" target="1Rzcqz73caveoxo0MW48-141">
          <mxGeometry relative="1" as="geometry" />
        </mxCell>
        <mxCell id="1Rzcqz73caveoxo0MW48-169" value="false" style="edgeLabel;html=1;align=center;verticalAlign=middle;resizable=0;points=[];" vertex="1" connectable="0" parent="1Rzcqz73caveoxo0MW48-142">
          <mxGeometry x="-0.572" y="-2" relative="1" as="geometry">
            <mxPoint as="offset" />
          </mxGeometry>
        </mxCell>
        <mxCell id="1Rzcqz73caveoxo0MW48-110" value="opsi == 3" style="rhombus;whiteSpace=wrap;html=1;" vertex="1" parent="1">
          <mxGeometry x="960" y="2530" width="80" height="80" as="geometry" />
        </mxCell>
        <mxCell id="1Rzcqz73caveoxo0MW48-116" value="" style="edgeStyle=orthogonalEdgeStyle;rounded=0;orthogonalLoop=1;jettySize=auto;html=1;" edge="1" parent="1" source="1Rzcqz73caveoxo0MW48-112" target="1Rzcqz73caveoxo0MW48-115">
          <mxGeometry relative="1" as="geometry" />
        </mxCell>
        <mxCell id="1Rzcqz73caveoxo0MW48-112" value="input kode obat" style="shape=parallelogram;perimeter=parallelogramPerimeter;whiteSpace=wrap;html=1;fixedSize=1;" vertex="1" parent="1">
          <mxGeometry x="930" y="2670" width="140" height="60" as="geometry" />
        </mxCell>
        <mxCell id="1Rzcqz73caveoxo0MW48-114" value="" style="endArrow=classic;html=1;rounded=0;entryX=0;entryY=0.25;entryDx=0;entryDy=0;" edge="1" parent="1" target="1Rzcqz73caveoxo0MW48-112">
          <mxGeometry width="50" height="50" relative="1" as="geometry">
            <mxPoint x="910" y="2688" as="sourcePoint" />
            <mxPoint x="940" y="2680" as="targetPoint" />
          </mxGeometry>
        </mxCell>
        <mxCell id="1Rzcqz73caveoxo0MW48-119" value="" style="edgeStyle=orthogonalEdgeStyle;rounded=0;orthogonalLoop=1;jettySize=auto;html=1;" edge="1" parent="1" source="1Rzcqz73caveoxo0MW48-115" target="1Rzcqz73caveoxo0MW48-117">
          <mxGeometry relative="1" as="geometry" />
        </mxCell>
        <mxCell id="1Rzcqz73caveoxo0MW48-173" value="true" style="edgeLabel;html=1;align=center;verticalAlign=middle;resizable=0;points=[];" vertex="1" connectable="0" parent="1Rzcqz73caveoxo0MW48-119">
          <mxGeometry x="-0.1467" y="-1" relative="1" as="geometry">
            <mxPoint as="offset" />
          </mxGeometry>
        </mxCell>
        <mxCell id="1Rzcqz73caveoxo0MW48-132" style="edgeStyle=orthogonalEdgeStyle;rounded=0;orthogonalLoop=1;jettySize=auto;html=1;exitX=0;exitY=0.5;exitDx=0;exitDy=0;" edge="1" parent="1" source="1Rzcqz73caveoxo0MW48-115" target="1Rzcqz73caveoxo0MW48-133">
          <mxGeometry relative="1" as="geometry">
            <mxPoint x="770.0000000000002" y="2939.9999999999995" as="targetPoint" />
          </mxGeometry>
        </mxCell>
        <mxCell id="1Rzcqz73caveoxo0MW48-172" value="false" style="edgeLabel;html=1;align=center;verticalAlign=middle;resizable=0;points=[];" vertex="1" connectable="0" parent="1Rzcqz73caveoxo0MW48-132">
          <mxGeometry x="-0.5308" relative="1" as="geometry">
            <mxPoint x="-1" as="offset" />
          </mxGeometry>
        </mxCell>
        <mxCell id="1Rzcqz73caveoxo0MW48-115" value="kode_obat in data" style="rhombus;whiteSpace=wrap;html=1;" vertex="1" parent="1">
          <mxGeometry x="937.5" y="2780" width="125" height="80" as="geometry" />
        </mxCell>
        <mxCell id="1Rzcqz73caveoxo0MW48-121" value="" style="edgeStyle=orthogonalEdgeStyle;rounded=0;orthogonalLoop=1;jettySize=auto;html=1;" edge="1" parent="1" source="1Rzcqz73caveoxo0MW48-117" target="1Rzcqz73caveoxo0MW48-120">
          <mxGeometry relative="1" as="geometry" />
        </mxCell>
        <mxCell id="1Rzcqz73caveoxo0MW48-117" value="input stok &amp;amp; harga&amp;nbsp;" style="shape=parallelogram;perimeter=parallelogramPerimeter;whiteSpace=wrap;html=1;fixedSize=1;" vertex="1" parent="1">
          <mxGeometry x="925" y="2910" width="150" height="50" as="geometry" />
        </mxCell>
        <mxCell id="1Rzcqz73caveoxo0MW48-118" value="" style="endArrow=classic;html=1;rounded=0;entryX=0;entryY=0.25;entryDx=0;entryDy=0;" edge="1" parent="1" target="1Rzcqz73caveoxo0MW48-117">
          <mxGeometry width="50" height="50" relative="1" as="geometry">
            <mxPoint x="910" y="2925" as="sourcePoint" />
            <mxPoint x="930" y="2922" as="targetPoint" />
          </mxGeometry>
        </mxCell>
        <mxCell id="1Rzcqz73caveoxo0MW48-128" value="" style="edgeStyle=orthogonalEdgeStyle;rounded=0;orthogonalLoop=1;jettySize=auto;html=1;" edge="1" parent="1" source="1Rzcqz73caveoxo0MW48-120" target="1Rzcqz73caveoxo0MW48-124">
          <mxGeometry relative="1" as="geometry" />
        </mxCell>
        <mxCell id="1Rzcqz73caveoxo0MW48-175" value="false" style="edgeLabel;html=1;align=center;verticalAlign=middle;resizable=0;points=[];" vertex="1" connectable="0" parent="1Rzcqz73caveoxo0MW48-128">
          <mxGeometry x="-0.135" relative="1" as="geometry">
            <mxPoint as="offset" />
          </mxGeometry>
        </mxCell>
        <mxCell id="1Rzcqz73caveoxo0MW48-129" value="" style="edgeStyle=orthogonalEdgeStyle;rounded=0;orthogonalLoop=1;jettySize=auto;html=1;" edge="1" parent="1" source="1Rzcqz73caveoxo0MW48-120" target="1Rzcqz73caveoxo0MW48-122">
          <mxGeometry relative="1" as="geometry" />
        </mxCell>
        <mxCell id="1Rzcqz73caveoxo0MW48-174" value="true" style="edgeLabel;html=1;align=center;verticalAlign=middle;resizable=0;points=[];" vertex="1" connectable="0" parent="1Rzcqz73caveoxo0MW48-129">
          <mxGeometry x="-0.1771" relative="1" as="geometry">
            <mxPoint x="1" as="offset" />
          </mxGeometry>
        </mxCell>
        <mxCell id="1Rzcqz73caveoxo0MW48-120" value="update stok &amp;amp; harga" style="rhombus;whiteSpace=wrap;html=1;" vertex="1" parent="1">
          <mxGeometry x="925" y="3020" width="150" height="80" as="geometry" />
        </mxCell>
        <mxCell id="1Rzcqz73caveoxo0MW48-154" style="edgeStyle=orthogonalEdgeStyle;rounded=0;orthogonalLoop=1;jettySize=auto;html=1;exitX=1;exitY=1;exitDx=0;exitDy=0;" edge="1" parent="1" source="1Rzcqz73caveoxo0MW48-122">
          <mxGeometry relative="1" as="geometry">
            <mxPoint x="1320" y="3083.3846153846152" as="targetPoint" />
          </mxGeometry>
        </mxCell>
        <mxCell id="1Rzcqz73caveoxo0MW48-122" value="output kode berhasil&lt;div&gt;diperbarui&lt;/div&gt;" style="shape=parallelogram;perimeter=parallelogramPerimeter;whiteSpace=wrap;html=1;fixedSize=1;" vertex="1" parent="1">
          <mxGeometry x="1130" y="3030" width="170" height="60" as="geometry" />
        </mxCell>
        <mxCell id="1Rzcqz73caveoxo0MW48-131" style="edgeStyle=orthogonalEdgeStyle;rounded=0;orthogonalLoop=1;jettySize=auto;html=1;exitX=1;exitY=1;exitDx=0;exitDy=0;" edge="1" parent="1" source="1Rzcqz73caveoxo0MW48-124">
          <mxGeometry relative="1" as="geometry">
            <mxPoint x="1080" y="3212" as="targetPoint" />
          </mxGeometry>
        </mxCell>
        <mxCell id="1Rzcqz73caveoxo0MW48-137" style="edgeStyle=orthogonalEdgeStyle;rounded=0;orthogonalLoop=1;jettySize=auto;html=1;exitX=0.5;exitY=1;exitDx=0;exitDy=0;entryX=0;entryY=0.5;entryDx=0;entryDy=0;" edge="1" parent="1" source="1Rzcqz73caveoxo0MW48-124" target="1Rzcqz73caveoxo0MW48-100">
          <mxGeometry relative="1" as="geometry">
            <Array as="points">
              <mxPoint x="1000" y="3260" />
              <mxPoint x="220" y="3260" />
              <mxPoint x="220" y="2415" />
            </Array>
          </mxGeometry>
        </mxCell>
        <mxCell id="1Rzcqz73caveoxo0MW48-124" value="output tidak&lt;div&gt;ada perubahan dilakukan&lt;/div&gt;" style="shape=parallelogram;perimeter=parallelogramPerimeter;whiteSpace=wrap;html=1;fixedSize=1;" vertex="1" parent="1">
          <mxGeometry x="940" y="3160" width="120" height="60" as="geometry" />
        </mxCell>
        <mxCell id="1Rzcqz73caveoxo0MW48-134" style="edgeStyle=orthogonalEdgeStyle;rounded=0;orthogonalLoop=1;jettySize=auto;html=1;exitX=1;exitY=1;exitDx=0;exitDy=0;" edge="1" parent="1" source="1Rzcqz73caveoxo0MW48-133">
          <mxGeometry relative="1" as="geometry">
            <mxPoint x="840" y="2963.666666666667" as="targetPoint" />
          </mxGeometry>
        </mxCell>
        <mxCell id="1Rzcqz73caveoxo0MW48-135" style="edgeStyle=orthogonalEdgeStyle;rounded=0;orthogonalLoop=1;jettySize=auto;html=1;exitX=1;exitY=1;exitDx=0;exitDy=0;" edge="1" parent="1" source="1Rzcqz73caveoxo0MW48-133">
          <mxGeometry relative="1" as="geometry">
            <mxPoint x="900" y="2963.666666666667" as="targetPoint" />
          </mxGeometry>
        </mxCell>
        <mxCell id="1Rzcqz73caveoxo0MW48-136" style="edgeStyle=orthogonalEdgeStyle;rounded=0;orthogonalLoop=1;jettySize=auto;html=1;exitX=0.5;exitY=1;exitDx=0;exitDy=0;entryX=0;entryY=0.5;entryDx=0;entryDy=0;" edge="1" parent="1" source="1Rzcqz73caveoxo0MW48-133" target="1Rzcqz73caveoxo0MW48-112">
          <mxGeometry relative="1" as="geometry">
            <Array as="points">
              <mxPoint x="815" y="2990" />
              <mxPoint x="710" y="2990" />
              <mxPoint x="710" y="2700" />
            </Array>
          </mxGeometry>
        </mxCell>
        <mxCell id="1Rzcqz73caveoxo0MW48-133" value="output kode_oba&lt;span style=&quot;background-color: transparent; color: light-dark(rgb(0, 0, 0), rgb(255, 255, 255));&quot;&gt;t&lt;/span&gt;&lt;div&gt;&lt;span style=&quot;background-color: transparent; color: light-dark(rgb(0, 0, 0), rgb(255, 255, 255));&quot;&gt;&amp;nbsp;tidak ditemukan&lt;/span&gt;&lt;/div&gt;" style="shape=parallelogram;perimeter=parallelogramPerimeter;whiteSpace=wrap;html=1;fixedSize=1;" vertex="1" parent="1">
          <mxGeometry x="740" y="2910" width="150" height="60" as="geometry" />
        </mxCell>
        <mxCell id="1Rzcqz73caveoxo0MW48-144" value="" style="edgeStyle=orthogonalEdgeStyle;rounded=0;orthogonalLoop=1;jettySize=auto;html=1;" edge="1" parent="1" source="1Rzcqz73caveoxo0MW48-141" target="1Rzcqz73caveoxo0MW48-143">
          <mxGeometry relative="1" as="geometry" />
        </mxCell>
        <mxCell id="1Rzcqz73caveoxo0MW48-177" value="true" style="edgeLabel;html=1;align=center;verticalAlign=middle;resizable=0;points=[];" vertex="1" connectable="0" parent="1Rzcqz73caveoxo0MW48-144">
          <mxGeometry x="-0.0923" y="1" relative="1" as="geometry">
            <mxPoint as="offset" />
          </mxGeometry>
        </mxCell>
        <mxCell id="1Rzcqz73caveoxo0MW48-165" value="" style="edgeStyle=orthogonalEdgeStyle;rounded=0;orthogonalLoop=1;jettySize=auto;html=1;" edge="1" parent="1" source="1Rzcqz73caveoxo0MW48-141" target="1Rzcqz73caveoxo0MW48-164">
          <mxGeometry relative="1" as="geometry" />
        </mxCell>
        <mxCell id="1Rzcqz73caveoxo0MW48-176" value="false" style="edgeLabel;html=1;align=center;verticalAlign=middle;resizable=0;points=[];" vertex="1" connectable="0" parent="1Rzcqz73caveoxo0MW48-165">
          <mxGeometry x="-0.2178" y="-1" relative="1" as="geometry">
            <mxPoint as="offset" />
          </mxGeometry>
        </mxCell>
        <mxCell id="1Rzcqz73caveoxo0MW48-141" value="opsi == 4" style="rhombus;whiteSpace=wrap;html=1;" vertex="1" parent="1">
          <mxGeometry x="1577.89" y="2530" width="80" height="80" as="geometry" />
        </mxCell>
        <mxCell id="1Rzcqz73caveoxo0MW48-148" value="" style="edgeStyle=orthogonalEdgeStyle;rounded=0;orthogonalLoop=1;jettySize=auto;html=1;" edge="1" parent="1" source="1Rzcqz73caveoxo0MW48-143" target="1Rzcqz73caveoxo0MW48-147">
          <mxGeometry relative="1" as="geometry" />
        </mxCell>
        <mxCell id="1Rzcqz73caveoxo0MW48-143" value="input kode obat yang&lt;div&gt;akan dihapus&lt;/div&gt;" style="shape=parallelogram;perimeter=parallelogramPerimeter;whiteSpace=wrap;html=1;fixedSize=1;" vertex="1" parent="1">
          <mxGeometry x="1537.89" y="2670" width="160" height="60" as="geometry" />
        </mxCell>
        <mxCell id="1Rzcqz73caveoxo0MW48-145" value="" style="endArrow=classic;html=1;rounded=0;entryX=0;entryY=0.25;entryDx=0;entryDy=0;" edge="1" parent="1" target="1Rzcqz73caveoxo0MW48-143">
          <mxGeometry width="50" height="50" relative="1" as="geometry">
            <mxPoint x="1507.89" y="2688" as="sourcePoint" />
            <mxPoint x="1537.89" y="2680" as="targetPoint" />
          </mxGeometry>
        </mxCell>
        <mxCell id="1Rzcqz73caveoxo0MW48-153" value="" style="edgeStyle=orthogonalEdgeStyle;rounded=0;orthogonalLoop=1;jettySize=auto;html=1;" edge="1" parent="1" source="1Rzcqz73caveoxo0MW48-146" target="1Rzcqz73caveoxo0MW48-152">
          <mxGeometry relative="1" as="geometry" />
        </mxCell>
        <mxCell id="1Rzcqz73caveoxo0MW48-146" value="hapus data obat" style="rounded=0;whiteSpace=wrap;html=1;" vertex="1" parent="1">
          <mxGeometry x="1557.89" y="2970" width="120" height="60" as="geometry" />
        </mxCell>
        <mxCell id="1Rzcqz73caveoxo0MW48-158" value="" style="edgeStyle=orthogonalEdgeStyle;rounded=0;orthogonalLoop=1;jettySize=auto;html=1;" edge="1" parent="1" source="1Rzcqz73caveoxo0MW48-147" target="1Rzcqz73caveoxo0MW48-146">
          <mxGeometry relative="1" as="geometry" />
        </mxCell>
        <mxCell id="1Rzcqz73caveoxo0MW48-178" value="true" style="edgeLabel;html=1;align=center;verticalAlign=middle;resizable=0;points=[];" vertex="1" connectable="0" parent="1Rzcqz73caveoxo0MW48-158">
          <mxGeometry x="-0.2392" relative="1" as="geometry">
            <mxPoint as="offset" />
          </mxGeometry>
        </mxCell>
        <mxCell id="1Rzcqz73caveoxo0MW48-160" style="edgeStyle=orthogonalEdgeStyle;rounded=0;orthogonalLoop=1;jettySize=auto;html=1;exitX=0;exitY=0.5;exitDx=0;exitDy=0;entryX=0.5;entryY=0;entryDx=0;entryDy=0;" edge="1" parent="1" source="1Rzcqz73caveoxo0MW48-147" target="1Rzcqz73caveoxo0MW48-149">
          <mxGeometry relative="1" as="geometry" />
        </mxCell>
        <mxCell id="1Rzcqz73caveoxo0MW48-179" value="false" style="edgeLabel;html=1;align=center;verticalAlign=middle;resizable=0;points=[];" vertex="1" connectable="0" parent="1Rzcqz73caveoxo0MW48-160">
          <mxGeometry x="-0.5066" y="2" relative="1" as="geometry">
            <mxPoint x="-1" as="offset" />
          </mxGeometry>
        </mxCell>
        <mxCell id="1Rzcqz73caveoxo0MW48-147" value="kode_obat in data" style="rhombus;whiteSpace=wrap;html=1;" vertex="1" parent="1">
          <mxGeometry x="1562.89" y="2780" width="110" height="80" as="geometry" />
        </mxCell>
        <mxCell id="1Rzcqz73caveoxo0MW48-156" style="edgeStyle=orthogonalEdgeStyle;rounded=0;orthogonalLoop=1;jettySize=auto;html=1;exitX=1;exitY=1;exitDx=0;exitDy=0;" edge="1" parent="1" source="1Rzcqz73caveoxo0MW48-149">
          <mxGeometry relative="1" as="geometry">
            <mxPoint x="1532.8899999999999" y="2953.3846153846152" as="targetPoint" />
          </mxGeometry>
        </mxCell>
        <mxCell id="1Rzcqz73caveoxo0MW48-162" style="edgeStyle=orthogonalEdgeStyle;rounded=0;orthogonalLoop=1;jettySize=auto;html=1;exitX=0.5;exitY=1;exitDx=0;exitDy=0;entryX=0;entryY=0.5;entryDx=0;entryDy=0;" edge="1" parent="1" source="1Rzcqz73caveoxo0MW48-149" target="1Rzcqz73caveoxo0MW48-143">
          <mxGeometry relative="1" as="geometry">
            <Array as="points">
              <mxPoint x="1441" y="3000" />
              <mxPoint x="1280" y="3000" />
              <mxPoint x="1280" y="2700" />
            </Array>
          </mxGeometry>
        </mxCell>
        <mxCell id="1Rzcqz73caveoxo0MW48-149" value="output obat tidak&amp;nbsp;&lt;div&gt;ditemukan&lt;/div&gt;" style="shape=parallelogram;perimeter=parallelogramPerimeter;whiteSpace=wrap;html=1;fixedSize=1;" vertex="1" parent="1">
          <mxGeometry x="1361.83" y="2900" width="157.89" height="60" as="geometry" />
        </mxCell>
        <mxCell id="1Rzcqz73caveoxo0MW48-159" style="edgeStyle=orthogonalEdgeStyle;rounded=0;orthogonalLoop=1;jettySize=auto;html=1;exitX=1;exitY=1;exitDx=0;exitDy=0;" edge="1" parent="1" source="1Rzcqz73caveoxo0MW48-152">
          <mxGeometry relative="1" as="geometry">
            <mxPoint x="1700" y="3142.6666666666665" as="targetPoint" />
          </mxGeometry>
        </mxCell>
        <mxCell id="1Rzcqz73caveoxo0MW48-163" style="edgeStyle=orthogonalEdgeStyle;rounded=0;orthogonalLoop=1;jettySize=auto;html=1;exitX=0.5;exitY=1;exitDx=0;exitDy=0;entryX=0;entryY=0.5;entryDx=0;entryDy=0;" edge="1" parent="1" source="1Rzcqz73caveoxo0MW48-152" target="1Rzcqz73caveoxo0MW48-100">
          <mxGeometry relative="1" as="geometry">
            <Array as="points">
              <mxPoint x="1618" y="3260" />
              <mxPoint x="220" y="3260" />
              <mxPoint x="220" y="2415" />
            </Array>
          </mxGeometry>
        </mxCell>
        <mxCell id="1Rzcqz73caveoxo0MW48-152" value="output obat berhasil dihapus" style="shape=parallelogram;perimeter=parallelogramPerimeter;whiteSpace=wrap;html=1;fixedSize=1;" vertex="1" parent="1">
          <mxGeometry x="1542.89" y="3090" width="150" height="60" as="geometry" />
        </mxCell>
        <mxCell id="1Rzcqz73caveoxo0MW48-183" value="" style="edgeStyle=orthogonalEdgeStyle;rounded=0;orthogonalLoop=1;jettySize=auto;html=1;" edge="1" parent="1" source="1Rzcqz73caveoxo0MW48-164" target="1Rzcqz73caveoxo0MW48-180">
          <mxGeometry relative="1" as="geometry" />
        </mxCell>
        <mxCell id="1Rzcqz73caveoxo0MW48-191" value="true" style="edgeLabel;html=1;align=center;verticalAlign=middle;resizable=0;points=[];" vertex="1" connectable="0" parent="1Rzcqz73caveoxo0MW48-183">
          <mxGeometry x="-0.1333" y="3" relative="1" as="geometry">
            <mxPoint as="offset" />
          </mxGeometry>
        </mxCell>
        <mxCell id="1Rzcqz73caveoxo0MW48-185" value="" style="edgeStyle=orthogonalEdgeStyle;rounded=0;orthogonalLoop=1;jettySize=auto;html=1;" edge="1" parent="1" source="1Rzcqz73caveoxo0MW48-164" target="1Rzcqz73caveoxo0MW48-184">
          <mxGeometry relative="1" as="geometry" />
        </mxCell>
        <mxCell id="1Rzcqz73caveoxo0MW48-190" value="false" style="edgeLabel;html=1;align=center;verticalAlign=middle;resizable=0;points=[];" vertex="1" connectable="0" parent="1Rzcqz73caveoxo0MW48-185">
          <mxGeometry x="-0.2095" relative="1" as="geometry">
            <mxPoint as="offset" />
          </mxGeometry>
        </mxCell>
        <mxCell id="1Rzcqz73caveoxo0MW48-164" value="opsi == 5" style="rhombus;whiteSpace=wrap;html=1;" vertex="1" parent="1">
          <mxGeometry x="1850" y="2530" width="80" height="80" as="geometry" />
        </mxCell>
        <mxCell id="1Rzcqz73caveoxo0MW48-182" style="edgeStyle=orthogonalEdgeStyle;rounded=0;orthogonalLoop=1;jettySize=auto;html=1;exitX=1;exitY=1;exitDx=0;exitDy=0;" edge="1" parent="1" source="1Rzcqz73caveoxo0MW48-180">
          <mxGeometry relative="1" as="geometry">
            <mxPoint x="1970" y="2722" as="targetPoint" />
          </mxGeometry>
        </mxCell>
        <mxCell id="1Rzcqz73caveoxo0MW48-189" style="edgeStyle=orthogonalEdgeStyle;rounded=0;orthogonalLoop=1;jettySize=auto;html=1;exitX=0.5;exitY=1;exitDx=0;exitDy=0;" edge="1" parent="1" source="1Rzcqz73caveoxo0MW48-180" target="1Rzcqz73caveoxo0MW48-188">
          <mxGeometry relative="1" as="geometry">
            <Array as="points">
              <mxPoint x="1890" y="3470" />
              <mxPoint x="400" y="3470" />
            </Array>
          </mxGeometry>
        </mxCell>
        <mxCell id="1Rzcqz73caveoxo0MW48-180" value="output pengguna&lt;div&gt;berhasil logout&lt;/div&gt;" style="shape=parallelogram;perimeter=parallelogramPerimeter;whiteSpace=wrap;html=1;fixedSize=1;" vertex="1" parent="1">
          <mxGeometry x="1830" y="2670" width="120" height="60" as="geometry" />
        </mxCell>
        <mxCell id="1Rzcqz73caveoxo0MW48-186" style="edgeStyle=orthogonalEdgeStyle;rounded=0;orthogonalLoop=1;jettySize=auto;html=1;exitX=1;exitY=1;exitDx=0;exitDy=0;" edge="1" parent="1" source="1Rzcqz73caveoxo0MW48-184">
          <mxGeometry relative="1" as="geometry">
            <mxPoint x="2120" y="2592" as="targetPoint" />
          </mxGeometry>
        </mxCell>
        <mxCell id="1Rzcqz73caveoxo0MW48-187" style="edgeStyle=orthogonalEdgeStyle;rounded=0;orthogonalLoop=1;jettySize=auto;html=1;exitX=1;exitY=0.5;exitDx=0;exitDy=0;entryX=1;entryY=0.5;entryDx=0;entryDy=0;" edge="1" parent="1" source="1Rzcqz73caveoxo0MW48-184" target="1Rzcqz73caveoxo0MW48-100">
          <mxGeometry relative="1" as="geometry">
            <Array as="points">
              <mxPoint x="2150" y="2570" />
              <mxPoint x="2150" y="2415" />
            </Array>
          </mxGeometry>
        </mxCell>
        <mxCell id="1Rzcqz73caveoxo0MW48-184" value="output opsi&amp;nbsp;&lt;div&gt;tidak valid&lt;/div&gt;" style="shape=parallelogram;perimeter=parallelogramPerimeter;whiteSpace=wrap;html=1;fixedSize=1;" vertex="1" parent="1">
          <mxGeometry x="1990" y="2540" width="120" height="60" as="geometry" />
        </mxCell>
        <mxCell id="1Rzcqz73caveoxo0MW48-188" value="end" style="ellipse;whiteSpace=wrap;html=1;" vertex="1" parent="1">
          <mxGeometry x="340" y="3530" width="120" height="80" as="geometry" />
        </mxCell>
        <mxCell id="1Rzcqz73caveoxo0MW48-194" value="" style="edgeStyle=orthogonalEdgeStyle;rounded=0;orthogonalLoop=1;jettySize=auto;html=1;" edge="1" parent="1" source="1Rzcqz73caveoxo0MW48-192" target="1Rzcqz73caveoxo0MW48-193">
          <mxGeometry relative="1" as="geometry" />
        </mxCell>
        <mxCell id="1Rzcqz73caveoxo0MW48-192" value="menu user" style="shape=process;whiteSpace=wrap;html=1;backgroundOutline=1;" vertex="1" parent="1">
          <mxGeometry x="2511" y="2740" width="120" height="60" as="geometry" />
        </mxCell>
        <mxCell id="1Rzcqz73caveoxo0MW48-195" style="edgeStyle=orthogonalEdgeStyle;rounded=0;orthogonalLoop=1;jettySize=auto;html=1;exitX=1;exitY=1;exitDx=0;exitDy=0;" edge="1" parent="1" source="1Rzcqz73caveoxo0MW48-193">
          <mxGeometry relative="1" as="geometry">
            <mxPoint x="2651" y="2940.2857142857147" as="targetPoint" />
          </mxGeometry>
        </mxCell>
        <mxCell id="1Rzcqz73caveoxo0MW48-197" value="" style="edgeStyle=orthogonalEdgeStyle;rounded=0;orthogonalLoop=1;jettySize=auto;html=1;" edge="1" parent="1" source="1Rzcqz73caveoxo0MW48-193" target="1Rzcqz73caveoxo0MW48-196">
          <mxGeometry relative="1" as="geometry" />
        </mxCell>
        <mxCell id="1Rzcqz73caveoxo0MW48-193" value="menu user&lt;div&gt;1. lihat data&lt;/div&gt;&lt;div&gt;2. beli obat&lt;/div&gt;&lt;div&gt;3. keluar&lt;/div&gt;" style="shape=parallelogram;perimeter=parallelogramPerimeter;whiteSpace=wrap;html=1;fixedSize=1;" vertex="1" parent="1">
          <mxGeometry x="2501" y="2870" width="140" height="80" as="geometry" />
        </mxCell>
        <mxCell id="1Rzcqz73caveoxo0MW48-199" value="" style="edgeStyle=orthogonalEdgeStyle;rounded=0;orthogonalLoop=1;jettySize=auto;html=1;" edge="1" parent="1" source="1Rzcqz73caveoxo0MW48-196" target="1Rzcqz73caveoxo0MW48-198">
          <mxGeometry relative="1" as="geometry" />
        </mxCell>
        <mxCell id="1Rzcqz73caveoxo0MW48-344" value="true" style="edgeLabel;html=1;align=center;verticalAlign=middle;resizable=0;points=[];" vertex="1" connectable="0" parent="1Rzcqz73caveoxo0MW48-199">
          <mxGeometry x="-0.2286" y="1" relative="1" as="geometry">
            <mxPoint as="offset" />
          </mxGeometry>
        </mxCell>
        <mxCell id="1Rzcqz73caveoxo0MW48-201" value="" style="edgeStyle=orthogonalEdgeStyle;rounded=0;orthogonalLoop=1;jettySize=auto;html=1;" edge="1" parent="1" source="1Rzcqz73caveoxo0MW48-196" target="1Rzcqz73caveoxo0MW48-200">
          <mxGeometry relative="1" as="geometry" />
        </mxCell>
        <mxCell id="1Rzcqz73caveoxo0MW48-341" value="false" style="edgeLabel;html=1;align=center;verticalAlign=middle;resizable=0;points=[];" vertex="1" connectable="0" parent="1Rzcqz73caveoxo0MW48-201">
          <mxGeometry x="-0.1029" y="1" relative="1" as="geometry">
            <mxPoint x="1" as="offset" />
          </mxGeometry>
        </mxCell>
        <mxCell id="1Rzcqz73caveoxo0MW48-196" value="opsi ==1" style="rhombus;whiteSpace=wrap;html=1;" vertex="1" parent="1">
          <mxGeometry x="2531" y="3010" width="80" height="80" as="geometry" />
        </mxCell>
        <mxCell id="1Rzcqz73caveoxo0MW48-198" value="tampil_daftar_obat_user" style="shape=process;whiteSpace=wrap;html=1;backgroundOutline=1;" vertex="1" parent="1">
          <mxGeometry x="2481" y="3160" width="180" height="60" as="geometry" />
        </mxCell>
        <mxCell id="1Rzcqz73caveoxo0MW48-203" value="" style="edgeStyle=orthogonalEdgeStyle;rounded=0;orthogonalLoop=1;jettySize=auto;html=1;entryX=0.5;entryY=0;entryDx=0;entryDy=0;" edge="1" parent="1" source="1Rzcqz73caveoxo0MW48-200" target="1Rzcqz73caveoxo0MW48-287">
          <mxGeometry relative="1" as="geometry">
            <mxPoint x="2786.000000000001" y="3150" as="targetPoint" />
          </mxGeometry>
        </mxCell>
        <mxCell id="1Rzcqz73caveoxo0MW48-345" value="true" style="edgeLabel;html=1;align=center;verticalAlign=middle;resizable=0;points=[];" vertex="1" connectable="0" parent="1Rzcqz73caveoxo0MW48-203">
          <mxGeometry x="-0.1524" relative="1" as="geometry">
            <mxPoint as="offset" />
          </mxGeometry>
        </mxCell>
        <mxCell id="1Rzcqz73caveoxo0MW48-211" value="" style="edgeStyle=orthogonalEdgeStyle;rounded=0;orthogonalLoop=1;jettySize=auto;html=1;" edge="1" parent="1" source="1Rzcqz73caveoxo0MW48-200" target="1Rzcqz73caveoxo0MW48-210">
          <mxGeometry relative="1" as="geometry" />
        </mxCell>
        <mxCell id="1Rzcqz73caveoxo0MW48-342" value="false" style="edgeLabel;html=1;align=center;verticalAlign=middle;resizable=0;points=[];" vertex="1" connectable="0" parent="1Rzcqz73caveoxo0MW48-211">
          <mxGeometry x="-0.0222" y="-2" relative="1" as="geometry">
            <mxPoint as="offset" />
          </mxGeometry>
        </mxCell>
        <mxCell id="1Rzcqz73caveoxo0MW48-200" value="opsi ==2" style="rhombus;whiteSpace=wrap;html=1;" vertex="1" parent="1">
          <mxGeometry x="2746" y="3010" width="80" height="80" as="geometry" />
        </mxCell>
        <mxCell id="1Rzcqz73caveoxo0MW48-213" value="" style="edgeStyle=orthogonalEdgeStyle;rounded=0;orthogonalLoop=1;jettySize=auto;html=1;" edge="1" parent="1" source="1Rzcqz73caveoxo0MW48-210" target="1Rzcqz73caveoxo0MW48-212">
          <mxGeometry relative="1" as="geometry" />
        </mxCell>
        <mxCell id="1Rzcqz73caveoxo0MW48-343" value="false" style="edgeLabel;html=1;align=center;verticalAlign=middle;resizable=0;points=[];" vertex="1" connectable="0" parent="1Rzcqz73caveoxo0MW48-213">
          <mxGeometry x="0.0064" relative="1" as="geometry">
            <mxPoint x="1" as="offset" />
          </mxGeometry>
        </mxCell>
        <mxCell id="1Rzcqz73caveoxo0MW48-216" value="" style="edgeStyle=orthogonalEdgeStyle;rounded=0;orthogonalLoop=1;jettySize=auto;html=1;" edge="1" parent="1" source="1Rzcqz73caveoxo0MW48-210" target="1Rzcqz73caveoxo0MW48-215">
          <mxGeometry relative="1" as="geometry" />
        </mxCell>
        <mxCell id="1Rzcqz73caveoxo0MW48-346" value="true" style="edgeLabel;html=1;align=center;verticalAlign=middle;resizable=0;points=[];" vertex="1" connectable="0" parent="1Rzcqz73caveoxo0MW48-216">
          <mxGeometry x="-0.1905" y="1" relative="1" as="geometry">
            <mxPoint as="offset" />
          </mxGeometry>
        </mxCell>
        <mxCell id="1Rzcqz73caveoxo0MW48-210" value="opsi ==3" style="rhombus;whiteSpace=wrap;html=1;" vertex="1" parent="1">
          <mxGeometry x="2971" y="3010" width="80" height="80" as="geometry" />
        </mxCell>
        <mxCell id="1Rzcqz73caveoxo0MW48-214" style="edgeStyle=orthogonalEdgeStyle;rounded=0;orthogonalLoop=1;jettySize=auto;html=1;exitX=1;exitY=0.5;exitDx=0;exitDy=0;entryX=1;entryY=0.5;entryDx=0;entryDy=0;" edge="1" parent="1" source="1Rzcqz73caveoxo0MW48-212" target="1Rzcqz73caveoxo0MW48-193">
          <mxGeometry relative="1" as="geometry">
            <Array as="points">
              <mxPoint x="3251" y="3050" />
              <mxPoint x="3251" y="2910" />
            </Array>
          </mxGeometry>
        </mxCell>
        <mxCell id="1Rzcqz73caveoxo0MW48-218" style="edgeStyle=orthogonalEdgeStyle;rounded=0;orthogonalLoop=1;jettySize=auto;html=1;exitX=1;exitY=1;exitDx=0;exitDy=0;" edge="1" parent="1" source="1Rzcqz73caveoxo0MW48-212">
          <mxGeometry relative="1" as="geometry">
            <mxPoint x="3241" y="3071.5" as="targetPoint" />
          </mxGeometry>
        </mxCell>
        <mxCell id="1Rzcqz73caveoxo0MW48-212" value="output opsi tidak&lt;div&gt;&amp;nbsp;valid&lt;/div&gt;" style="shape=parallelogram;perimeter=parallelogramPerimeter;whiteSpace=wrap;html=1;fixedSize=1;" vertex="1" parent="1">
          <mxGeometry x="3111" y="3020" width="120" height="60" as="geometry" />
        </mxCell>
        <mxCell id="1Rzcqz73caveoxo0MW48-217" style="edgeStyle=orthogonalEdgeStyle;rounded=0;orthogonalLoop=1;jettySize=auto;html=1;exitX=1;exitY=1;exitDx=0;exitDy=0;" edge="1" parent="1" source="1Rzcqz73caveoxo0MW48-215">
          <mxGeometry relative="1" as="geometry">
            <mxPoint x="3091" y="3211" as="targetPoint" />
          </mxGeometry>
        </mxCell>
        <mxCell id="1Rzcqz73caveoxo0MW48-221" style="edgeStyle=orthogonalEdgeStyle;rounded=0;orthogonalLoop=1;jettySize=auto;html=1;exitX=0.5;exitY=1;exitDx=0;exitDy=0;entryX=0.5;entryY=0;entryDx=0;entryDy=0;" edge="1" parent="1" source="1Rzcqz73caveoxo0MW48-215" target="1Rzcqz73caveoxo0MW48-220">
          <mxGeometry relative="1" as="geometry">
            <Array as="points">
              <mxPoint x="3011" y="3290" />
              <mxPoint x="2571" y="3290" />
            </Array>
          </mxGeometry>
        </mxCell>
        <mxCell id="1Rzcqz73caveoxo0MW48-215" value="output pengguna&lt;div&gt;berhasil logout&lt;/div&gt;" style="shape=parallelogram;perimeter=parallelogramPerimeter;whiteSpace=wrap;html=1;fixedSize=1;" vertex="1" parent="1">
          <mxGeometry x="2951" y="3160" width="120" height="60" as="geometry" />
        </mxCell>
        <mxCell id="1Rzcqz73caveoxo0MW48-220" value="end" style="ellipse;whiteSpace=wrap;html=1;" vertex="1" parent="1">
          <mxGeometry x="2511" y="3350" width="120" height="80" as="geometry" />
        </mxCell>
        <mxCell id="1Rzcqz73caveoxo0MW48-225" value="" style="edgeStyle=orthogonalEdgeStyle;rounded=0;orthogonalLoop=1;jettySize=auto;html=1;" edge="1" parent="1" source="1Rzcqz73caveoxo0MW48-222" target="1Rzcqz73caveoxo0MW48-223">
          <mxGeometry relative="1" as="geometry" />
        </mxCell>
        <mxCell id="1Rzcqz73caveoxo0MW48-222" value="tampil_daftar_obat_user" style="shape=process;whiteSpace=wrap;html=1;backgroundOutline=1;" vertex="1" parent="1">
          <mxGeometry x="3722" y="2825" width="190" height="60" as="geometry" />
        </mxCell>
        <mxCell id="1Rzcqz73caveoxo0MW48-224" style="edgeStyle=orthogonalEdgeStyle;rounded=0;orthogonalLoop=1;jettySize=auto;html=1;exitX=1;exitY=1;exitDx=0;exitDy=0;" edge="1" parent="1" source="1Rzcqz73caveoxo0MW48-223">
          <mxGeometry relative="1" as="geometry">
            <mxPoint x="3892" y="3007" as="targetPoint" />
          </mxGeometry>
        </mxCell>
        <mxCell id="1Rzcqz73caveoxo0MW48-227" value="" style="edgeStyle=orthogonalEdgeStyle;rounded=0;orthogonalLoop=1;jettySize=auto;html=1;" edge="1" parent="1" source="1Rzcqz73caveoxo0MW48-223" target="1Rzcqz73caveoxo0MW48-226">
          <mxGeometry relative="1" as="geometry" />
        </mxCell>
        <mxCell id="1Rzcqz73caveoxo0MW48-223" value="&quot;--daftar obat--&quot;" style="shape=parallelogram;perimeter=parallelogramPerimeter;whiteSpace=wrap;html=1;fixedSize=1;" vertex="1" parent="1">
          <mxGeometry x="3757" y="2955" width="120" height="60" as="geometry" />
        </mxCell>
        <mxCell id="1Rzcqz73caveoxo0MW48-230" value="" style="edgeStyle=orthogonalEdgeStyle;rounded=0;orthogonalLoop=1;jettySize=auto;html=1;" edge="1" parent="1" source="1Rzcqz73caveoxo0MW48-226" target="1Rzcqz73caveoxo0MW48-229">
          <mxGeometry relative="1" as="geometry" />
        </mxCell>
        <mxCell id="1Rzcqz73caveoxo0MW48-233" value="false" style="edgeLabel;html=1;align=center;verticalAlign=middle;resizable=0;points=[];" vertex="1" connectable="0" parent="1Rzcqz73caveoxo0MW48-230">
          <mxGeometry x="-0.1207" relative="1" as="geometry">
            <mxPoint as="offset" />
          </mxGeometry>
        </mxCell>
        <mxCell id="1Rzcqz73caveoxo0MW48-231" value="" style="edgeStyle=orthogonalEdgeStyle;rounded=0;orthogonalLoop=1;jettySize=auto;html=1;" edge="1" parent="1" source="1Rzcqz73caveoxo0MW48-226" target="1Rzcqz73caveoxo0MW48-228">
          <mxGeometry relative="1" as="geometry" />
        </mxCell>
        <mxCell id="1Rzcqz73caveoxo0MW48-232" value="true" style="edgeLabel;html=1;align=center;verticalAlign=middle;resizable=0;points=[];" vertex="1" connectable="0" parent="1Rzcqz73caveoxo0MW48-231">
          <mxGeometry x="-0.1506" relative="1" as="geometry">
            <mxPoint as="offset" />
          </mxGeometry>
        </mxCell>
        <mxCell id="1Rzcqz73caveoxo0MW48-226" value="obat data" style="rhombus;whiteSpace=wrap;html=1;" vertex="1" parent="1">
          <mxGeometry x="3777" y="3075" width="80" height="80" as="geometry" />
        </mxCell>
        <mxCell id="1Rzcqz73caveoxo0MW48-236" style="edgeStyle=orthogonalEdgeStyle;rounded=0;orthogonalLoop=1;jettySize=auto;html=1;exitX=1;exitY=1;exitDx=0;exitDy=0;" edge="1" parent="1" source="1Rzcqz73caveoxo0MW48-228">
          <mxGeometry relative="1" as="geometry">
            <mxPoint x="3882" y="3266.777777777778" as="targetPoint" />
          </mxGeometry>
        </mxCell>
        <mxCell id="1Rzcqz73caveoxo0MW48-241" value="" style="edgeStyle=orthogonalEdgeStyle;rounded=0;orthogonalLoop=1;jettySize=auto;html=1;" edge="1" parent="1" source="1Rzcqz73caveoxo0MW48-228" target="1Rzcqz73caveoxo0MW48-240">
          <mxGeometry relative="1" as="geometry" />
        </mxCell>
        <mxCell id="1Rzcqz73caveoxo0MW48-228" value="output data obat" style="shape=parallelogram;perimeter=parallelogramPerimeter;whiteSpace=wrap;html=1;fixedSize=1;" vertex="1" parent="1">
          <mxGeometry x="3757" y="3215" width="120" height="60" as="geometry" />
        </mxCell>
        <mxCell id="1Rzcqz73caveoxo0MW48-235" style="edgeStyle=orthogonalEdgeStyle;rounded=0;orthogonalLoop=1;jettySize=auto;html=1;exitX=1;exitY=1;exitDx=0;exitDy=0;" edge="1" parent="1" source="1Rzcqz73caveoxo0MW48-229">
          <mxGeometry relative="1" as="geometry">
            <mxPoint x="4062" y="3136.777777777778" as="targetPoint" />
          </mxGeometry>
        </mxCell>
        <mxCell id="1Rzcqz73caveoxo0MW48-242" style="edgeStyle=orthogonalEdgeStyle;rounded=0;orthogonalLoop=1;jettySize=auto;html=1;exitX=1;exitY=0.75;exitDx=0;exitDy=0;entryX=1;entryY=0.5;entryDx=0;entryDy=0;" edge="1" parent="1" source="1Rzcqz73caveoxo0MW48-229" target="1Rzcqz73caveoxo0MW48-223">
          <mxGeometry relative="1" as="geometry">
            <Array as="points">
              <mxPoint x="4092" y="3127" />
              <mxPoint x="4092" y="2985" />
            </Array>
          </mxGeometry>
        </mxCell>
        <mxCell id="1Rzcqz73caveoxo0MW48-229" value="output data obat kosong" style="shape=parallelogram;perimeter=parallelogramPerimeter;whiteSpace=wrap;html=1;fixedSize=1;" vertex="1" parent="1">
          <mxGeometry x="3932" y="3085" width="120" height="60" as="geometry" />
        </mxCell>
        <mxCell id="1Rzcqz73caveoxo0MW48-240" value="end" style="ellipse;whiteSpace=wrap;html=1;" vertex="1" parent="1">
          <mxGeometry x="3757" y="3335" width="120" height="80" as="geometry" />
        </mxCell>
        <mxCell id="1Rzcqz73caveoxo0MW48-246" value="" style="edgeStyle=orthogonalEdgeStyle;rounded=0;orthogonalLoop=1;jettySize=auto;html=1;" edge="1" parent="1" source="1Rzcqz73caveoxo0MW48-244" target="1Rzcqz73caveoxo0MW48-245">
          <mxGeometry relative="1" as="geometry" />
        </mxCell>
        <mxCell id="1Rzcqz73caveoxo0MW48-244" value="tambah_obat_baru" style="shape=process;whiteSpace=wrap;html=1;backgroundOutline=1;" vertex="1" parent="1">
          <mxGeometry x="2591" y="1558" width="170" height="60" as="geometry" />
        </mxCell>
        <mxCell id="1Rzcqz73caveoxo0MW48-249" value="" style="edgeStyle=orthogonalEdgeStyle;rounded=0;orthogonalLoop=1;jettySize=auto;html=1;" edge="1" parent="1" source="1Rzcqz73caveoxo0MW48-245" target="1Rzcqz73caveoxo0MW48-248">
          <mxGeometry relative="1" as="geometry" />
        </mxCell>
        <mxCell id="1Rzcqz73caveoxo0MW48-245" value="input nama obat" style="shape=parallelogram;perimeter=parallelogramPerimeter;whiteSpace=wrap;html=1;fixedSize=1;" vertex="1" parent="1">
          <mxGeometry x="2616" y="1698" width="120" height="60" as="geometry" />
        </mxCell>
        <mxCell id="1Rzcqz73caveoxo0MW48-247" value="" style="endArrow=classic;html=1;rounded=0;entryX=0;entryY=0;entryDx=0;entryDy=0;" edge="1" parent="1" target="1Rzcqz73caveoxo0MW48-245">
          <mxGeometry width="50" height="50" relative="1" as="geometry">
            <mxPoint x="2591" y="1707" as="sourcePoint" />
            <mxPoint x="2616" y="1708" as="targetPoint" />
          </mxGeometry>
        </mxCell>
        <mxCell id="1Rzcqz73caveoxo0MW48-251" value="" style="edgeStyle=orthogonalEdgeStyle;rounded=0;orthogonalLoop=1;jettySize=auto;html=1;" edge="1" parent="1" source="1Rzcqz73caveoxo0MW48-248" target="1Rzcqz73caveoxo0MW48-250">
          <mxGeometry relative="1" as="geometry" />
        </mxCell>
        <mxCell id="1Rzcqz73caveoxo0MW48-330" value="false" style="edgeLabel;html=1;align=center;verticalAlign=middle;resizable=0;points=[];" vertex="1" connectable="0" parent="1Rzcqz73caveoxo0MW48-251">
          <mxGeometry x="-0.0311" relative="1" as="geometry">
            <mxPoint as="offset" />
          </mxGeometry>
        </mxCell>
        <mxCell id="1Rzcqz73caveoxo0MW48-253" value="" style="edgeStyle=orthogonalEdgeStyle;rounded=0;orthogonalLoop=1;jettySize=auto;html=1;" edge="1" parent="1" source="1Rzcqz73caveoxo0MW48-248" target="1Rzcqz73caveoxo0MW48-252">
          <mxGeometry relative="1" as="geometry" />
        </mxCell>
        <mxCell id="1Rzcqz73caveoxo0MW48-331" value="true" style="edgeLabel;html=1;align=center;verticalAlign=middle;resizable=0;points=[];" vertex="1" connectable="0" parent="1Rzcqz73caveoxo0MW48-253">
          <mxGeometry x="-0.2061" relative="1" as="geometry">
            <mxPoint as="offset" />
          </mxGeometry>
        </mxCell>
        <mxCell id="1Rzcqz73caveoxo0MW48-248" value="stok" style="rhombus;whiteSpace=wrap;html=1;" vertex="1" parent="1">
          <mxGeometry x="2636" y="1818" width="80" height="80" as="geometry" />
        </mxCell>
        <mxCell id="1Rzcqz73caveoxo0MW48-255" value="" style="edgeStyle=orthogonalEdgeStyle;rounded=0;orthogonalLoop=1;jettySize=auto;html=1;" edge="1" parent="1" source="1Rzcqz73caveoxo0MW48-250" target="1Rzcqz73caveoxo0MW48-254">
          <mxGeometry relative="1" as="geometry" />
        </mxCell>
        <mxCell id="1Rzcqz73caveoxo0MW48-332" value="true" style="edgeLabel;html=1;align=center;verticalAlign=middle;resizable=0;points=[];" vertex="1" connectable="0" parent="1Rzcqz73caveoxo0MW48-255">
          <mxGeometry x="-0.0444" relative="1" as="geometry">
            <mxPoint as="offset" />
          </mxGeometry>
        </mxCell>
        <mxCell id="1Rzcqz73caveoxo0MW48-257" value="" style="edgeStyle=orthogonalEdgeStyle;rounded=0;orthogonalLoop=1;jettySize=auto;html=1;" edge="1" parent="1" source="1Rzcqz73caveoxo0MW48-250" target="1Rzcqz73caveoxo0MW48-256">
          <mxGeometry relative="1" as="geometry" />
        </mxCell>
        <mxCell id="1Rzcqz73caveoxo0MW48-329" value="false" style="edgeLabel;html=1;align=center;verticalAlign=middle;resizable=0;points=[];" vertex="1" connectable="0" parent="1Rzcqz73caveoxo0MW48-257">
          <mxGeometry x="-0.1351" y="-1" relative="1" as="geometry">
            <mxPoint as="offset" />
          </mxGeometry>
        </mxCell>
        <mxCell id="1Rzcqz73caveoxo0MW48-250" value="harga" style="rhombus;whiteSpace=wrap;html=1;" vertex="1" parent="1">
          <mxGeometry x="2796" y="1818" width="80" height="80" as="geometry" />
        </mxCell>
        <mxCell id="1Rzcqz73caveoxo0MW48-262" value="" style="edgeStyle=orthogonalEdgeStyle;rounded=0;orthogonalLoop=1;jettySize=auto;html=1;" edge="1" parent="1" source="1Rzcqz73caveoxo0MW48-252" target="1Rzcqz73caveoxo0MW48-261">
          <mxGeometry relative="1" as="geometry" />
        </mxCell>
        <mxCell id="1Rzcqz73caveoxo0MW48-252" value="input stok" style="shape=parallelogram;perimeter=parallelogramPerimeter;whiteSpace=wrap;html=1;fixedSize=1;" vertex="1" parent="1">
          <mxGeometry x="2616" y="1988" width="120" height="60" as="geometry" />
        </mxCell>
        <mxCell id="1Rzcqz73caveoxo0MW48-264" style="edgeStyle=orthogonalEdgeStyle;rounded=0;orthogonalLoop=1;jettySize=auto;html=1;exitX=0.5;exitY=1;exitDx=0;exitDy=0;entryX=1;entryY=0.75;entryDx=0;entryDy=0;" edge="1" parent="1" source="1Rzcqz73caveoxo0MW48-254" target="1Rzcqz73caveoxo0MW48-261">
          <mxGeometry relative="1" as="geometry">
            <Array as="points">
              <mxPoint x="2836" y="2160" />
            </Array>
          </mxGeometry>
        </mxCell>
        <mxCell id="1Rzcqz73caveoxo0MW48-254" value="input harga" style="shape=parallelogram;perimeter=parallelogramPerimeter;whiteSpace=wrap;html=1;fixedSize=1;" vertex="1" parent="1">
          <mxGeometry x="2776" y="1988" width="120" height="60" as="geometry" />
        </mxCell>
        <mxCell id="1Rzcqz73caveoxo0MW48-258" style="edgeStyle=orthogonalEdgeStyle;rounded=0;orthogonalLoop=1;jettySize=auto;html=1;exitX=1;exitY=1;exitDx=0;exitDy=0;" edge="1" parent="1" source="1Rzcqz73caveoxo0MW48-256">
          <mxGeometry relative="1" as="geometry">
            <mxPoint x="3101.0000000000005" y="1880.6153846153845" as="targetPoint" />
          </mxGeometry>
        </mxCell>
        <mxCell id="1Rzcqz73caveoxo0MW48-267" style="edgeStyle=orthogonalEdgeStyle;rounded=0;orthogonalLoop=1;jettySize=auto;html=1;exitX=1;exitY=0.5;exitDx=0;exitDy=0;entryX=1;entryY=0.5;entryDx=0;entryDy=0;" edge="1" parent="1" source="1Rzcqz73caveoxo0MW48-256" target="1Rzcqz73caveoxo0MW48-245">
          <mxGeometry relative="1" as="geometry">
            <Array as="points">
              <mxPoint x="3111" y="1858" />
              <mxPoint x="3111" y="1728" />
            </Array>
          </mxGeometry>
        </mxCell>
        <mxCell id="1Rzcqz73caveoxo0MW48-256" value="output penambahan&lt;div&gt;dibatalkan&lt;/div&gt;" style="shape=parallelogram;perimeter=parallelogramPerimeter;whiteSpace=wrap;html=1;fixedSize=1;" vertex="1" parent="1">
          <mxGeometry x="2936" y="1828" width="155" height="60" as="geometry" />
        </mxCell>
        <mxCell id="1Rzcqz73caveoxo0MW48-259" value="" style="endArrow=classic;html=1;rounded=0;entryX=0;entryY=0;entryDx=0;entryDy=0;" edge="1" parent="1" target="1Rzcqz73caveoxo0MW48-254">
          <mxGeometry width="50" height="50" relative="1" as="geometry">
            <mxPoint x="2761" y="1998" as="sourcePoint" />
            <mxPoint x="2786" y="2008" as="targetPoint" />
          </mxGeometry>
        </mxCell>
        <mxCell id="1Rzcqz73caveoxo0MW48-260" value="" style="endArrow=classic;html=1;rounded=0;entryX=0;entryY=0;entryDx=0;entryDy=0;" edge="1" parent="1" target="1Rzcqz73caveoxo0MW48-252">
          <mxGeometry width="50" height="50" relative="1" as="geometry">
            <mxPoint x="2611" y="1997" as="sourcePoint" />
            <mxPoint x="2631" y="2008" as="targetPoint" />
          </mxGeometry>
        </mxCell>
        <mxCell id="1Rzcqz73caveoxo0MW48-263" style="edgeStyle=orthogonalEdgeStyle;rounded=0;orthogonalLoop=1;jettySize=auto;html=1;exitX=1;exitY=1;exitDx=0;exitDy=0;" edge="1" parent="1" source="1Rzcqz73caveoxo0MW48-261">
          <mxGeometry relative="1" as="geometry">
            <mxPoint x="2761.0000000000005" y="2171.3846153846152" as="targetPoint" />
          </mxGeometry>
        </mxCell>
        <mxCell id="1Rzcqz73caveoxo0MW48-266" value="" style="edgeStyle=orthogonalEdgeStyle;rounded=0;orthogonalLoop=1;jettySize=auto;html=1;" edge="1" parent="1" source="1Rzcqz73caveoxo0MW48-261" target="1Rzcqz73caveoxo0MW48-265">
          <mxGeometry relative="1" as="geometry" />
        </mxCell>
        <mxCell id="1Rzcqz73caveoxo0MW48-261" value="output data berhasil&lt;div&gt;ditambahkan&lt;/div&gt;" style="shape=parallelogram;perimeter=parallelogramPerimeter;whiteSpace=wrap;html=1;fixedSize=1;" vertex="1" parent="1">
          <mxGeometry x="2601" y="2118" width="150" height="60" as="geometry" />
        </mxCell>
        <mxCell id="1Rzcqz73caveoxo0MW48-265" value="end" style="ellipse;whiteSpace=wrap;html=1;" vertex="1" parent="1">
          <mxGeometry x="2616" y="2258" width="120" height="80" as="geometry" />
        </mxCell>
        <mxCell id="1Rzcqz73caveoxo0MW48-272" value="" style="edgeStyle=orthogonalEdgeStyle;rounded=0;orthogonalLoop=1;jettySize=auto;html=1;" edge="1" parent="1" source="1Rzcqz73caveoxo0MW48-268" target="1Rzcqz73caveoxo0MW48-271">
          <mxGeometry relative="1" as="geometry" />
        </mxCell>
        <mxCell id="1Rzcqz73caveoxo0MW48-268" value="tampilkan_obat" style="shape=process;whiteSpace=wrap;html=1;backgroundOutline=1;" vertex="1" parent="1">
          <mxGeometry x="1800" y="1169" width="195" height="60" as="geometry" />
        </mxCell>
        <mxCell id="1Rzcqz73caveoxo0MW48-278" value="" style="edgeStyle=orthogonalEdgeStyle;rounded=0;orthogonalLoop=1;jettySize=auto;html=1;" edge="1" parent="1" source="1Rzcqz73caveoxo0MW48-269" target="1Rzcqz73caveoxo0MW48-277">
          <mxGeometry relative="1" as="geometry" />
        </mxCell>
        <mxCell id="1Rzcqz73caveoxo0MW48-269" value="cek_obat_data_kosong" style="shape=process;whiteSpace=wrap;html=1;backgroundOutline=1;" vertex="1" parent="1">
          <mxGeometry x="2042.5" y="1314" width="195" height="60" as="geometry" />
        </mxCell>
        <mxCell id="1Rzcqz73caveoxo0MW48-274" value="" style="edgeStyle=orthogonalEdgeStyle;rounded=0;orthogonalLoop=1;jettySize=auto;html=1;" edge="1" parent="1" source="1Rzcqz73caveoxo0MW48-271" target="1Rzcqz73caveoxo0MW48-273">
          <mxGeometry relative="1" as="geometry" />
        </mxCell>
        <mxCell id="1Rzcqz73caveoxo0MW48-339" value="true" style="edgeLabel;html=1;align=center;verticalAlign=middle;resizable=0;points=[];" vertex="1" connectable="0" parent="1Rzcqz73caveoxo0MW48-274">
          <mxGeometry x="-0.1667" y="-1" relative="1" as="geometry">
            <mxPoint as="offset" />
          </mxGeometry>
        </mxCell>
        <mxCell id="1Rzcqz73caveoxo0MW48-276" value="" style="edgeStyle=orthogonalEdgeStyle;rounded=0;orthogonalLoop=1;jettySize=auto;html=1;" edge="1" parent="1" source="1Rzcqz73caveoxo0MW48-271" target="1Rzcqz73caveoxo0MW48-269">
          <mxGeometry relative="1" as="geometry" />
        </mxCell>
        <mxCell id="1Rzcqz73caveoxo0MW48-340" value="false" style="edgeLabel;html=1;align=center;verticalAlign=middle;resizable=0;points=[];" vertex="1" connectable="0" parent="1Rzcqz73caveoxo0MW48-276">
          <mxGeometry x="-0.0995" y="-1" relative="1" as="geometry">
            <mxPoint x="1" as="offset" />
          </mxGeometry>
        </mxCell>
        <mxCell id="1Rzcqz73caveoxo0MW48-271" value="daftar obat" style="rhombus;whiteSpace=wrap;html=1;" vertex="1" parent="1">
          <mxGeometry x="1857.5" y="1304" width="80" height="80" as="geometry" />
        </mxCell>
        <mxCell id="1Rzcqz73caveoxo0MW48-275" style="edgeStyle=orthogonalEdgeStyle;rounded=0;orthogonalLoop=1;jettySize=auto;html=1;exitX=1;exitY=1;exitDx=0;exitDy=0;" edge="1" parent="1" source="1Rzcqz73caveoxo0MW48-273">
          <mxGeometry relative="1" as="geometry">
            <mxPoint x="1962.5" y="1496" as="targetPoint" />
          </mxGeometry>
        </mxCell>
        <mxCell id="1Rzcqz73caveoxo0MW48-281" value="" style="edgeStyle=orthogonalEdgeStyle;rounded=0;orthogonalLoop=1;jettySize=auto;html=1;" edge="1" parent="1" source="1Rzcqz73caveoxo0MW48-273" target="1Rzcqz73caveoxo0MW48-280">
          <mxGeometry relative="1" as="geometry" />
        </mxCell>
        <mxCell id="1Rzcqz73caveoxo0MW48-273" value="output daftar obat" style="shape=parallelogram;perimeter=parallelogramPerimeter;whiteSpace=wrap;html=1;fixedSize=1;" vertex="1" parent="1">
          <mxGeometry x="1837.5" y="1444" width="120" height="60" as="geometry" />
        </mxCell>
        <mxCell id="1Rzcqz73caveoxo0MW48-279" style="edgeStyle=orthogonalEdgeStyle;rounded=0;orthogonalLoop=1;jettySize=auto;html=1;exitX=1;exitY=1;exitDx=0;exitDy=0;" edge="1" parent="1" source="1Rzcqz73caveoxo0MW48-277">
          <mxGeometry relative="1" as="geometry">
            <mxPoint x="2462.5" y="1366" as="targetPoint" />
          </mxGeometry>
        </mxCell>
        <mxCell id="1Rzcqz73caveoxo0MW48-277" value="output data obat kosong" style="shape=parallelogram;perimeter=parallelogramPerimeter;whiteSpace=wrap;html=1;fixedSize=1;" vertex="1" parent="1">
          <mxGeometry x="2330" y="1314" width="120" height="60" as="geometry" />
        </mxCell>
        <mxCell id="1Rzcqz73caveoxo0MW48-280" value="end" style="ellipse;whiteSpace=wrap;html=1;" vertex="1" parent="1">
          <mxGeometry x="1837.5" y="1584" width="120" height="80" as="geometry" />
        </mxCell>
        <mxCell id="1Rzcqz73caveoxo0MW48-284" value="" style="edgeStyle=orthogonalEdgeStyle;rounded=0;orthogonalLoop=1;jettySize=auto;html=1;" edge="1" parent="1" source="1Rzcqz73caveoxo0MW48-282" target="1Rzcqz73caveoxo0MW48-283">
          <mxGeometry relative="1" as="geometry" />
        </mxCell>
        <mxCell id="1Rzcqz73caveoxo0MW48-282" value="cek_data_obat_kosong" style="shape=process;whiteSpace=wrap;html=1;backgroundOutline=1;" vertex="1" parent="1">
          <mxGeometry x="4549" y="2780" width="180" height="60" as="geometry" />
        </mxCell>
        <mxCell id="1Rzcqz73caveoxo0MW48-286" value="" style="edgeStyle=orthogonalEdgeStyle;rounded=0;orthogonalLoop=1;jettySize=auto;html=1;" edge="1" parent="1" source="1Rzcqz73caveoxo0MW48-283" target="1Rzcqz73caveoxo0MW48-285">
          <mxGeometry relative="1" as="geometry" />
        </mxCell>
        <mxCell id="1Rzcqz73caveoxo0MW48-283" value="global obat_data" style="whiteSpace=wrap;html=1;" vertex="1" parent="1">
          <mxGeometry x="4579" y="2920" width="120" height="60" as="geometry" />
        </mxCell>
        <mxCell id="1Rzcqz73caveoxo0MW48-285" value="end" style="ellipse;whiteSpace=wrap;html=1;" vertex="1" parent="1">
          <mxGeometry x="4579" y="3050" width="120" height="80" as="geometry" />
        </mxCell>
        <mxCell id="1Rzcqz73caveoxo0MW48-287" value="proses_pembelian" style="shape=process;whiteSpace=wrap;html=1;backgroundOutline=1;" vertex="1" parent="1">
          <mxGeometry x="2721" y="3160" width="130" height="60" as="geometry" />
        </mxCell>
        <mxCell id="1Rzcqz73caveoxo0MW48-291" value="" style="edgeStyle=orthogonalEdgeStyle;rounded=0;orthogonalLoop=1;jettySize=auto;html=1;" edge="1" parent="1" source="1Rzcqz73caveoxo0MW48-288" target="1Rzcqz73caveoxo0MW48-289">
          <mxGeometry relative="1" as="geometry" />
        </mxCell>
        <mxCell id="1Rzcqz73caveoxo0MW48-288" value="proses_pembelian" style="shape=process;whiteSpace=wrap;html=1;backgroundOutline=1;" vertex="1" parent="1">
          <mxGeometry x="2710" y="33" width="140" height="60" as="geometry" />
        </mxCell>
        <mxCell id="1Rzcqz73caveoxo0MW48-293" value="" style="edgeStyle=orthogonalEdgeStyle;rounded=0;orthogonalLoop=1;jettySize=auto;html=1;" edge="1" parent="1" source="1Rzcqz73caveoxo0MW48-289" target="1Rzcqz73caveoxo0MW48-292">
          <mxGeometry relative="1" as="geometry" />
        </mxCell>
        <mxCell id="1Rzcqz73caveoxo0MW48-289" value="kode_obat,jumlah_beli" style="shape=parallelogram;perimeter=parallelogramPerimeter;whiteSpace=wrap;html=1;fixedSize=1;" vertex="1" parent="1">
          <mxGeometry x="2690" y="163" width="180" height="60" as="geometry" />
        </mxCell>
        <mxCell id="1Rzcqz73caveoxo0MW48-290" value="" style="endArrow=classic;html=1;rounded=0;entryX=0;entryY=0.25;entryDx=0;entryDy=0;" edge="1" parent="1" target="1Rzcqz73caveoxo0MW48-289">
          <mxGeometry width="50" height="50" relative="1" as="geometry">
            <mxPoint x="2670" y="180" as="sourcePoint" />
            <mxPoint x="2690" y="173" as="targetPoint" />
          </mxGeometry>
        </mxCell>
        <mxCell id="1Rzcqz73caveoxo0MW48-310" value="" style="edgeStyle=orthogonalEdgeStyle;rounded=0;orthogonalLoop=1;jettySize=auto;html=1;" edge="1" parent="1" source="1Rzcqz73caveoxo0MW48-292" target="1Rzcqz73caveoxo0MW48-296">
          <mxGeometry relative="1" as="geometry" />
        </mxCell>
        <mxCell id="1Rzcqz73caveoxo0MW48-333" value="true" style="edgeLabel;html=1;align=center;verticalAlign=middle;resizable=0;points=[];" vertex="1" connectable="0" parent="1Rzcqz73caveoxo0MW48-310">
          <mxGeometry x="-0.0988" relative="1" as="geometry">
            <mxPoint as="offset" />
          </mxGeometry>
        </mxCell>
        <mxCell id="1Rzcqz73caveoxo0MW48-313" value="" style="edgeStyle=orthogonalEdgeStyle;rounded=0;orthogonalLoop=1;jettySize=auto;html=1;" edge="1" parent="1" source="1Rzcqz73caveoxo0MW48-292" target="1Rzcqz73caveoxo0MW48-294">
          <mxGeometry relative="1" as="geometry" />
        </mxCell>
        <mxCell id="1Rzcqz73caveoxo0MW48-335" value="false" style="edgeLabel;html=1;align=center;verticalAlign=middle;resizable=0;points=[];" vertex="1" connectable="0" parent="1Rzcqz73caveoxo0MW48-313">
          <mxGeometry x="-0.203" relative="1" as="geometry">
            <mxPoint as="offset" />
          </mxGeometry>
        </mxCell>
        <mxCell id="1Rzcqz73caveoxo0MW48-292" value="jumlah_beli &amp;lt;=0" style="rhombus;whiteSpace=wrap;html=1;" vertex="1" parent="1">
          <mxGeometry x="2720" y="273" width="120" height="80" as="geometry" />
        </mxCell>
        <mxCell id="1Rzcqz73caveoxo0MW48-309" value="" style="edgeStyle=orthogonalEdgeStyle;rounded=0;orthogonalLoop=1;jettySize=auto;html=1;" edge="1" parent="1" source="1Rzcqz73caveoxo0MW48-294" target="1Rzcqz73caveoxo0MW48-302">
          <mxGeometry relative="1" as="geometry" />
        </mxCell>
        <mxCell id="1Rzcqz73caveoxo0MW48-334" value="true" style="edgeLabel;html=1;align=center;verticalAlign=middle;resizable=0;points=[];" vertex="1" connectable="0" parent="1Rzcqz73caveoxo0MW48-309">
          <mxGeometry x="-0.068" relative="1" as="geometry">
            <mxPoint as="offset" />
          </mxGeometry>
        </mxCell>
        <mxCell id="1Rzcqz73caveoxo0MW48-314" value="" style="edgeStyle=orthogonalEdgeStyle;rounded=0;orthogonalLoop=1;jettySize=auto;html=1;" edge="1" parent="1" source="1Rzcqz73caveoxo0MW48-294" target="1Rzcqz73caveoxo0MW48-307">
          <mxGeometry relative="1" as="geometry" />
        </mxCell>
        <mxCell id="1Rzcqz73caveoxo0MW48-336" value="false" style="edgeLabel;html=1;align=center;verticalAlign=middle;resizable=0;points=[];" vertex="1" connectable="0" parent="1Rzcqz73caveoxo0MW48-314">
          <mxGeometry x="-0.102" y="1" relative="1" as="geometry">
            <mxPoint as="offset" />
          </mxGeometry>
        </mxCell>
        <mxCell id="1Rzcqz73caveoxo0MW48-294" value="stok &amp;lt; jumlah beli" style="rhombus;whiteSpace=wrap;html=1;" vertex="1" parent="1">
          <mxGeometry x="2720" y="413" width="120" height="80" as="geometry" />
        </mxCell>
        <mxCell id="1Rzcqz73caveoxo0MW48-311" style="edgeStyle=orthogonalEdgeStyle;rounded=0;orthogonalLoop=1;jettySize=auto;html=1;exitX=1;exitY=1;exitDx=0;exitDy=0;" edge="1" parent="1" source="1Rzcqz73caveoxo0MW48-296">
          <mxGeometry relative="1" as="geometry">
            <mxPoint x="3050" y="334.7142857142858" as="targetPoint" />
          </mxGeometry>
        </mxCell>
        <mxCell id="1Rzcqz73caveoxo0MW48-296" value="output jumlah beli&lt;div&gt;harus positif&lt;/div&gt;" style="shape=parallelogram;perimeter=parallelogramPerimeter;whiteSpace=wrap;html=1;fixedSize=1;" vertex="1" parent="1">
          <mxGeometry x="2915" y="283" width="130" height="60" as="geometry" />
        </mxCell>
        <mxCell id="1Rzcqz73caveoxo0MW48-312" style="edgeStyle=orthogonalEdgeStyle;rounded=0;orthogonalLoop=1;jettySize=auto;html=1;exitX=1;exitY=1;exitDx=0;exitDy=0;" edge="1" parent="1" source="1Rzcqz73caveoxo0MW48-302">
          <mxGeometry relative="1" as="geometry">
            <mxPoint x="3050" y="474.7142857142858" as="targetPoint" />
          </mxGeometry>
        </mxCell>
        <mxCell id="1Rzcqz73caveoxo0MW48-302" value="output stok tidak&lt;div&gt;mencukupi&lt;/div&gt;" style="shape=parallelogram;perimeter=parallelogramPerimeter;whiteSpace=wrap;html=1;fixedSize=1;" vertex="1" parent="1">
          <mxGeometry x="2920" y="423" width="120" height="60" as="geometry" />
        </mxCell>
        <mxCell id="1Rzcqz73caveoxo0MW48-315" value="" style="edgeStyle=orthogonalEdgeStyle;rounded=0;orthogonalLoop=1;jettySize=auto;html=1;" edge="1" parent="1" source="1Rzcqz73caveoxo0MW48-305" target="1Rzcqz73caveoxo0MW48-306">
          <mxGeometry relative="1" as="geometry" />
        </mxCell>
        <mxCell id="1Rzcqz73caveoxo0MW48-305" value="jumlah_beli_baru" style="rounded=0;whiteSpace=wrap;html=1;" vertex="1" parent="1">
          <mxGeometry x="2920" y="563" width="120" height="60" as="geometry" />
        </mxCell>
        <mxCell id="1Rzcqz73caveoxo0MW48-306" value="minta_jumlah_ulang" style="shape=process;whiteSpace=wrap;html=1;backgroundOutline=1;" vertex="1" parent="1">
          <mxGeometry x="3100" y="563" width="180" height="60" as="geometry" />
        </mxCell>
        <mxCell id="1Rzcqz73caveoxo0MW48-308" value="" style="edgeStyle=orthogonalEdgeStyle;rounded=0;orthogonalLoop=1;jettySize=auto;html=1;" edge="1" parent="1" source="1Rzcqz73caveoxo0MW48-307" target="1Rzcqz73caveoxo0MW48-305">
          <mxGeometry relative="1" as="geometry" />
        </mxCell>
        <mxCell id="1Rzcqz73caveoxo0MW48-337" value="true" style="edgeLabel;html=1;align=center;verticalAlign=middle;resizable=0;points=[];" vertex="1" connectable="0" parent="1Rzcqz73caveoxo0MW48-308">
          <mxGeometry x="-0.0197" y="-1" relative="1" as="geometry">
            <mxPoint as="offset" />
          </mxGeometry>
        </mxCell>
        <mxCell id="1Rzcqz73caveoxo0MW48-320" value="" style="edgeStyle=orthogonalEdgeStyle;rounded=0;orthogonalLoop=1;jettySize=auto;html=1;" edge="1" parent="1" source="1Rzcqz73caveoxo0MW48-307" target="1Rzcqz73caveoxo0MW48-319">
          <mxGeometry relative="1" as="geometry" />
        </mxCell>
        <mxCell id="1Rzcqz73caveoxo0MW48-338" value="false" style="edgeLabel;html=1;align=center;verticalAlign=middle;resizable=0;points=[];" vertex="1" connectable="0" parent="1Rzcqz73caveoxo0MW48-320">
          <mxGeometry x="-0.2618" y="-3" relative="1" as="geometry">
            <mxPoint as="offset" />
          </mxGeometry>
        </mxCell>
        <mxCell id="1Rzcqz73caveoxo0MW48-307" value="jumlah_beli_baru" style="rhombus;whiteSpace=wrap;html=1;" vertex="1" parent="1">
          <mxGeometry x="2720" y="553" width="120" height="80" as="geometry" />
        </mxCell>
        <mxCell id="1Rzcqz73caveoxo0MW48-326" value="" style="edgeStyle=orthogonalEdgeStyle;rounded=0;orthogonalLoop=1;jettySize=auto;html=1;" edge="1" parent="1" source="1Rzcqz73caveoxo0MW48-316" target="1Rzcqz73caveoxo0MW48-324">
          <mxGeometry relative="1" as="geometry" />
        </mxCell>
        <mxCell id="1Rzcqz73caveoxo0MW48-316" value="total_harga = jumlah_beli * harga_satuan" style="whiteSpace=wrap;html=1;" vertex="1" parent="1">
          <mxGeometry x="2720" y="953" width="120" height="60" as="geometry" />
        </mxCell>
        <mxCell id="1Rzcqz73caveoxo0MW48-322" value="" style="edgeStyle=orthogonalEdgeStyle;rounded=0;orthogonalLoop=1;jettySize=auto;html=1;" edge="1" parent="1" source="1Rzcqz73caveoxo0MW48-318" target="1Rzcqz73caveoxo0MW48-316">
          <mxGeometry relative="1" as="geometry" />
        </mxCell>
        <mxCell id="1Rzcqz73caveoxo0MW48-318" value="jumlah beli = jumlah_beli_baru" style="rounded=0;whiteSpace=wrap;html=1;" vertex="1" parent="1">
          <mxGeometry x="2720" y="813" width="120" height="60" as="geometry" />
        </mxCell>
        <mxCell id="1Rzcqz73caveoxo0MW48-321" value="" style="edgeStyle=orthogonalEdgeStyle;rounded=0;orthogonalLoop=1;jettySize=auto;html=1;" edge="1" parent="1" source="1Rzcqz73caveoxo0MW48-319" target="1Rzcqz73caveoxo0MW48-318">
          <mxGeometry relative="1" as="geometry" />
        </mxCell>
        <mxCell id="1Rzcqz73caveoxo0MW48-319" value="stok_obat -= jumlah_beli" style="rounded=0;whiteSpace=wrap;html=1;" vertex="1" parent="1">
          <mxGeometry x="2720" y="683" width="120" height="60" as="geometry" />
        </mxCell>
        <mxCell id="1Rzcqz73caveoxo0MW48-325" style="edgeStyle=orthogonalEdgeStyle;rounded=0;orthogonalLoop=1;jettySize=auto;html=1;exitX=1;exitY=1;exitDx=0;exitDy=0;" edge="1" parent="1" source="1Rzcqz73caveoxo0MW48-324">
          <mxGeometry relative="1" as="geometry">
            <mxPoint x="2890" y="1127.5714285714287" as="targetPoint" />
          </mxGeometry>
        </mxCell>
        <mxCell id="1Rzcqz73caveoxo0MW48-328" value="" style="edgeStyle=orthogonalEdgeStyle;rounded=0;orthogonalLoop=1;jettySize=auto;html=1;" edge="1" parent="1" source="1Rzcqz73caveoxo0MW48-324" target="1Rzcqz73caveoxo0MW48-327">
          <mxGeometry relative="1" as="geometry" />
        </mxCell>
        <mxCell id="1Rzcqz73caveoxo0MW48-324" value="output pembelian berhasil&lt;br&gt;(obat,jumlah beli,total harga)" style="shape=parallelogram;perimeter=parallelogramPerimeter;whiteSpace=wrap;html=1;fixedSize=1;" vertex="1" parent="1">
          <mxGeometry x="2680" y="1073" width="200" height="60" as="geometry" />
        </mxCell>
        <mxCell id="1Rzcqz73caveoxo0MW48-327" value="end" style="ellipse;whiteSpace=wrap;html=1;" vertex="1" parent="1">
          <mxGeometry x="2720" y="1187" width="120" height="80" as="geometry" />
        </mxCell>
        <mxCell id="1Rzcqz73caveoxo0MW48-350" value="" style="edgeStyle=orthogonalEdgeStyle;rounded=0;orthogonalLoop=1;jettySize=auto;html=1;" edge="1" parent="1" source="1Rzcqz73caveoxo0MW48-347" target="1Rzcqz73caveoxo0MW48-348">
          <mxGeometry relative="1" as="geometry" />
        </mxCell>
        <mxCell id="1Rzcqz73caveoxo0MW48-347" value="minta_jumlah_ulang" style="shape=process;whiteSpace=wrap;html=1;backgroundOutline=1;" vertex="1" parent="1">
          <mxGeometry x="3770" y="20" width="180" height="60" as="geometry" />
        </mxCell>
        <mxCell id="1Rzcqz73caveoxo0MW48-351" value="" style="edgeStyle=orthogonalEdgeStyle;rounded=0;orthogonalLoop=1;jettySize=auto;html=1;" edge="1" parent="1" source="1Rzcqz73caveoxo0MW48-348" target="1Rzcqz73caveoxo0MW48-349">
          <mxGeometry relative="1" as="geometry" />
        </mxCell>
        <mxCell id="1Rzcqz73caveoxo0MW48-348" value="nama_obat,max_stok" style="shape=parallelogram;perimeter=parallelogramPerimeter;whiteSpace=wrap;html=1;fixedSize=1;" vertex="1" parent="1">
          <mxGeometry x="3765" y="140" width="190" height="60" as="geometry" />
        </mxCell>
        <mxCell id="1Rzcqz73caveoxo0MW48-355" value="" style="edgeStyle=orthogonalEdgeStyle;rounded=0;orthogonalLoop=1;jettySize=auto;html=1;" edge="1" parent="1" source="1Rzcqz73caveoxo0MW48-349" target="1Rzcqz73caveoxo0MW48-354">
          <mxGeometry relative="1" as="geometry" />
        </mxCell>
        <mxCell id="1Rzcqz73caveoxo0MW48-349" value="input jumlah beli baru" style="shape=parallelogram;perimeter=parallelogramPerimeter;whiteSpace=wrap;html=1;fixedSize=1;" vertex="1" parent="1">
          <mxGeometry x="3775" y="264" width="170" height="60" as="geometry" />
        </mxCell>
        <mxCell id="1Rzcqz73caveoxo0MW48-352" value="" style="endArrow=classic;html=1;rounded=0;entryX=0;entryY=0;entryDx=0;entryDy=0;" edge="1" parent="1" target="1Rzcqz73caveoxo0MW48-348">
          <mxGeometry width="50" height="50" relative="1" as="geometry">
            <mxPoint x="3750" y="146" as="sourcePoint" />
            <mxPoint x="3750" y="150" as="targetPoint" />
          </mxGeometry>
        </mxCell>
        <mxCell id="1Rzcqz73caveoxo0MW48-353" value="" style="endArrow=classic;html=1;rounded=0;" edge="1" parent="1">
          <mxGeometry width="50" height="50" relative="1" as="geometry">
            <mxPoint x="3750" y="280" as="sourcePoint" />
            <mxPoint x="3790" y="280" as="targetPoint" />
          </mxGeometry>
        </mxCell>
        <mxCell id="1Rzcqz73caveoxo0MW48-358" value="" style="edgeStyle=orthogonalEdgeStyle;rounded=0;orthogonalLoop=1;jettySize=auto;html=1;" edge="1" parent="1" source="1Rzcqz73caveoxo0MW48-354" target="1Rzcqz73caveoxo0MW48-356">
          <mxGeometry relative="1" as="geometry" />
        </mxCell>
        <mxCell id="1Rzcqz73caveoxo0MW48-376" value="true" style="edgeLabel;html=1;align=center;verticalAlign=middle;resizable=0;points=[];" vertex="1" connectable="0" parent="1Rzcqz73caveoxo0MW48-358">
          <mxGeometry x="-0.2462" y="1" relative="1" as="geometry">
            <mxPoint y="1" as="offset" />
          </mxGeometry>
        </mxCell>
        <mxCell id="1Rzcqz73caveoxo0MW48-360" value="" style="edgeStyle=orthogonalEdgeStyle;rounded=0;orthogonalLoop=1;jettySize=auto;html=1;" edge="1" parent="1" source="1Rzcqz73caveoxo0MW48-354" target="1Rzcqz73caveoxo0MW48-359">
          <mxGeometry relative="1" as="geometry" />
        </mxCell>
        <mxCell id="1Rzcqz73caveoxo0MW48-374" value="false" style="edgeLabel;html=1;align=center;verticalAlign=middle;resizable=0;points=[];" vertex="1" connectable="0" parent="1Rzcqz73caveoxo0MW48-360">
          <mxGeometry x="0.0738" y="-1" relative="1" as="geometry">
            <mxPoint as="offset" />
          </mxGeometry>
        </mxCell>
        <mxCell id="1Rzcqz73caveoxo0MW48-354" value="jumlah_baru == 0" style="rhombus;whiteSpace=wrap;html=1;" vertex="1" parent="1">
          <mxGeometry x="3787" y="384" width="148" height="80" as="geometry" />
        </mxCell>
        <mxCell id="1Rzcqz73caveoxo0MW48-357" style="edgeStyle=orthogonalEdgeStyle;rounded=0;orthogonalLoop=1;jettySize=auto;html=1;exitX=1;exitY=1;exitDx=0;exitDy=0;" edge="1" parent="1" source="1Rzcqz73caveoxo0MW48-356">
          <mxGeometry relative="1" as="geometry">
            <mxPoint x="3960" y="564" as="targetPoint" />
          </mxGeometry>
        </mxCell>
        <mxCell id="1Rzcqz73caveoxo0MW48-356" value="output&amp;nbsp;&lt;div&gt;pembelian dibatalkan&lt;/div&gt;" style="shape=parallelogram;perimeter=parallelogramPerimeter;whiteSpace=wrap;html=1;fixedSize=1;" vertex="1" parent="1">
          <mxGeometry x="3776" y="510" width="168" height="60" as="geometry" />
        </mxCell>
        <mxCell id="1Rzcqz73caveoxo0MW48-362" value="" style="edgeStyle=orthogonalEdgeStyle;rounded=0;orthogonalLoop=1;jettySize=auto;html=1;" edge="1" parent="1" source="1Rzcqz73caveoxo0MW48-359" target="1Rzcqz73caveoxo0MW48-361">
          <mxGeometry relative="1" as="geometry" />
        </mxCell>
        <mxCell id="1Rzcqz73caveoxo0MW48-375" value="true" style="edgeLabel;html=1;align=center;verticalAlign=middle;resizable=0;points=[];" vertex="1" connectable="0" parent="1Rzcqz73caveoxo0MW48-362">
          <mxGeometry x="-0.2298" y="-1" relative="1" as="geometry">
            <mxPoint y="1" as="offset" />
          </mxGeometry>
        </mxCell>
        <mxCell id="1Rzcqz73caveoxo0MW48-365" value="" style="edgeStyle=orthogonalEdgeStyle;rounded=0;orthogonalLoop=1;jettySize=auto;html=1;" edge="1" parent="1" source="1Rzcqz73caveoxo0MW48-359" target="1Rzcqz73caveoxo0MW48-364">
          <mxGeometry relative="1" as="geometry" />
        </mxCell>
        <mxCell id="1Rzcqz73caveoxo0MW48-373" value="false" style="edgeLabel;html=1;align=center;verticalAlign=middle;resizable=0;points=[];" vertex="1" connectable="0" parent="1Rzcqz73caveoxo0MW48-365">
          <mxGeometry x="-0.0548" y="-1" relative="1" as="geometry">
            <mxPoint x="1" as="offset" />
          </mxGeometry>
        </mxCell>
        <mxCell id="1Rzcqz73caveoxo0MW48-359" value="jumlah_baru &amp;lt; 0" style="rhombus;whiteSpace=wrap;html=1;" vertex="1" parent="1">
          <mxGeometry x="4015" y="384" width="148" height="80" as="geometry" />
        </mxCell>
        <mxCell id="1Rzcqz73caveoxo0MW48-363" style="edgeStyle=orthogonalEdgeStyle;rounded=0;orthogonalLoop=1;jettySize=auto;html=1;exitX=1;exitY=1;exitDx=0;exitDy=0;" edge="1" parent="1" source="1Rzcqz73caveoxo0MW48-361">
          <mxGeometry relative="1" as="geometry">
            <mxPoint x="4180" y="563.1428571428573" as="targetPoint" />
          </mxGeometry>
        </mxCell>
        <mxCell id="1Rzcqz73caveoxo0MW48-361" value="output jumlah&lt;div&gt;&amp;nbsp;tidak boleh negatif&lt;/div&gt;" style="shape=parallelogram;perimeter=parallelogramPerimeter;whiteSpace=wrap;html=1;fixedSize=1;" vertex="1" parent="1">
          <mxGeometry x="4008.5" y="510" width="161" height="60" as="geometry" />
        </mxCell>
        <mxCell id="1Rzcqz73caveoxo0MW48-367" value="" style="edgeStyle=orthogonalEdgeStyle;rounded=0;orthogonalLoop=1;jettySize=auto;html=1;" edge="1" parent="1" source="1Rzcqz73caveoxo0MW48-364" target="1Rzcqz73caveoxo0MW48-366">
          <mxGeometry relative="1" as="geometry" />
        </mxCell>
        <mxCell id="1Rzcqz73caveoxo0MW48-372" value="true" style="edgeLabel;html=1;align=center;verticalAlign=middle;resizable=0;points=[];" vertex="1" connectable="0" parent="1Rzcqz73caveoxo0MW48-367">
          <mxGeometry x="-0.1779" y="1" relative="1" as="geometry">
            <mxPoint y="1" as="offset" />
          </mxGeometry>
        </mxCell>
        <mxCell id="1Rzcqz73caveoxo0MW48-370" style="edgeStyle=orthogonalEdgeStyle;rounded=0;orthogonalLoop=1;jettySize=auto;html=1;exitX=1;exitY=0.5;exitDx=0;exitDy=0;entryX=0.5;entryY=0;entryDx=0;entryDy=0;" edge="1" parent="1" source="1Rzcqz73caveoxo0MW48-364" target="1Rzcqz73caveoxo0MW48-369">
          <mxGeometry relative="1" as="geometry">
            <Array as="points">
              <mxPoint x="4470" y="424" />
              <mxPoint x="4470" y="700" />
              <mxPoint x="3862" y="700" />
            </Array>
          </mxGeometry>
        </mxCell>
        <mxCell id="1Rzcqz73caveoxo0MW48-371" value="false" style="edgeLabel;html=1;align=center;verticalAlign=middle;resizable=0;points=[];" vertex="1" connectable="0" parent="1Rzcqz73caveoxo0MW48-370">
          <mxGeometry x="-0.9355" y="1" relative="1" as="geometry">
            <mxPoint as="offset" />
          </mxGeometry>
        </mxCell>
        <mxCell id="1Rzcqz73caveoxo0MW48-364" value="jumlah_baru &amp;gt; max_stok" style="rhombus;whiteSpace=wrap;html=1;" vertex="1" parent="1">
          <mxGeometry x="4243" y="384" width="148" height="80" as="geometry" />
        </mxCell>
        <mxCell id="1Rzcqz73caveoxo0MW48-368" style="edgeStyle=orthogonalEdgeStyle;rounded=0;orthogonalLoop=1;jettySize=auto;html=1;exitX=1;exitY=1;exitDx=0;exitDy=0;" edge="1" parent="1" source="1Rzcqz73caveoxo0MW48-366">
          <mxGeometry relative="1" as="geometry">
            <mxPoint x="4400" y="563.1428571428573" as="targetPoint" />
          </mxGeometry>
        </mxCell>
        <mxCell id="1Rzcqz73caveoxo0MW48-366" value="output jumlah melebihi stok yang tersedia" style="shape=parallelogram;perimeter=parallelogramPerimeter;whiteSpace=wrap;html=1;fixedSize=1;" vertex="1" parent="1">
          <mxGeometry x="4244" y="510" width="147" height="60" as="geometry" />
        </mxCell>
        <mxCell id="1Rzcqz73caveoxo0MW48-369" value="end" style="ellipse;whiteSpace=wrap;html=1;" vertex="1" parent="1">
          <mxGeometry x="3802" y="750" width="120" height="80" as="geometry" />
        </mxCell>
        <mxCell id="1Rzcqz73caveoxo0MW48-393" value="" style="edgeStyle=orthogonalEdgeStyle;rounded=0;orthogonalLoop=1;jettySize=auto;html=1;" edge="1" parent="1" source="1Rzcqz73caveoxo0MW48-377" target="1Rzcqz73caveoxo0MW48-378">
          <mxGeometry relative="1" as="geometry" />
        </mxCell>
        <mxCell id="1Rzcqz73caveoxo0MW48-377" value="get_int_input" style="shape=process;whiteSpace=wrap;html=1;backgroundOutline=1;" vertex="1" parent="1">
          <mxGeometry x="3620" y="1400" width="120" height="60" as="geometry" />
        </mxCell>
        <mxCell id="1Rzcqz73caveoxo0MW48-394" value="" style="edgeStyle=orthogonalEdgeStyle;rounded=0;orthogonalLoop=1;jettySize=auto;html=1;" edge="1" parent="1" source="1Rzcqz73caveoxo0MW48-378" target="1Rzcqz73caveoxo0MW48-379">
          <mxGeometry relative="1" as="geometry" />
        </mxCell>
        <mxCell id="1Rzcqz73caveoxo0MW48-378" value="pilihan_opsi,min_nilai,max_nilai" style="shape=parallelogram;perimeter=parallelogramPerimeter;whiteSpace=wrap;html=1;fixedSize=1;" vertex="1" parent="1">
          <mxGeometry x="3575" y="1504" width="210" height="60" as="geometry" />
        </mxCell>
        <mxCell id="1Rzcqz73caveoxo0MW48-395" value="" style="edgeStyle=orthogonalEdgeStyle;rounded=0;orthogonalLoop=1;jettySize=auto;html=1;" edge="1" parent="1" source="1Rzcqz73caveoxo0MW48-379" target="1Rzcqz73caveoxo0MW48-380">
          <mxGeometry relative="1" as="geometry" />
        </mxCell>
        <mxCell id="1Rzcqz73caveoxo0MW48-379" value="input (pilihan_opsi)" style="shape=parallelogram;perimeter=parallelogramPerimeter;whiteSpace=wrap;html=1;fixedSize=1;" vertex="1" parent="1">
          <mxGeometry x="3605" y="1604" width="150" height="60" as="geometry" />
        </mxCell>
        <mxCell id="1Rzcqz73caveoxo0MW48-396" value="" style="edgeStyle=orthogonalEdgeStyle;rounded=0;orthogonalLoop=1;jettySize=auto;html=1;" edge="1" parent="1" source="1Rzcqz73caveoxo0MW48-380" target="1Rzcqz73caveoxo0MW48-381">
          <mxGeometry relative="1" as="geometry" />
        </mxCell>
        <mxCell id="1Rzcqz73caveoxo0MW48-408" value="false" style="edgeLabel;html=1;align=center;verticalAlign=middle;resizable=0;points=[];" vertex="1" connectable="0" parent="1Rzcqz73caveoxo0MW48-396">
          <mxGeometry x="-0.0479" relative="1" as="geometry">
            <mxPoint as="offset" />
          </mxGeometry>
        </mxCell>
        <mxCell id="1Rzcqz73caveoxo0MW48-397" value="" style="edgeStyle=orthogonalEdgeStyle;rounded=0;orthogonalLoop=1;jettySize=auto;html=1;" edge="1" parent="1" source="1Rzcqz73caveoxo0MW48-380" target="1Rzcqz73caveoxo0MW48-385">
          <mxGeometry relative="1" as="geometry" />
        </mxCell>
        <mxCell id="1Rzcqz73caveoxo0MW48-409" value="true" style="edgeLabel;html=1;align=center;verticalAlign=middle;resizable=0;points=[];" vertex="1" connectable="0" parent="1Rzcqz73caveoxo0MW48-397">
          <mxGeometry x="-0.246" y="-1" relative="1" as="geometry">
            <mxPoint as="offset" />
          </mxGeometry>
        </mxCell>
        <mxCell id="1Rzcqz73caveoxo0MW48-380" value="input_str" style="rhombus;whiteSpace=wrap;html=1;" vertex="1" parent="1">
          <mxGeometry x="3640" y="1714" width="80" height="80" as="geometry" />
        </mxCell>
        <mxCell id="1Rzcqz73caveoxo0MW48-384" style="edgeStyle=orthogonalEdgeStyle;rounded=0;orthogonalLoop=1;jettySize=auto;html=1;exitX=1;exitY=1;exitDx=0;exitDy=0;" edge="1" parent="1" source="1Rzcqz73caveoxo0MW48-381">
          <mxGeometry relative="1" as="geometry">
            <mxPoint x="3930" y="1775.6923076923076" as="targetPoint" />
          </mxGeometry>
        </mxCell>
        <mxCell id="1Rzcqz73caveoxo0MW48-404" style="edgeStyle=orthogonalEdgeStyle;rounded=0;orthogonalLoop=1;jettySize=auto;html=1;exitX=1;exitY=0.5;exitDx=0;exitDy=0;entryX=1;entryY=0.5;entryDx=0;entryDy=0;" edge="1" parent="1" source="1Rzcqz73caveoxo0MW48-381" target="1Rzcqz73caveoxo0MW48-379">
          <mxGeometry relative="1" as="geometry">
            <Array as="points">
              <mxPoint x="4000" y="1754" />
              <mxPoint x="4000" y="1634" />
            </Array>
          </mxGeometry>
        </mxCell>
        <mxCell id="1Rzcqz73caveoxo0MW48-381" value="output&lt;br&gt;&quot;input tidak boleh kosong&quot;" style="shape=parallelogram;perimeter=parallelogramPerimeter;whiteSpace=wrap;html=1;fixedSize=1;" vertex="1" parent="1">
          <mxGeometry x="3785" y="1724" width="135" height="60" as="geometry" />
        </mxCell>
        <mxCell id="1Rzcqz73caveoxo0MW48-398" value="" style="edgeStyle=orthogonalEdgeStyle;rounded=0;orthogonalLoop=1;jettySize=auto;html=1;" edge="1" parent="1" source="1Rzcqz73caveoxo0MW48-385" target="1Rzcqz73caveoxo0MW48-386">
          <mxGeometry relative="1" as="geometry" />
        </mxCell>
        <mxCell id="1Rzcqz73caveoxo0MW48-385" value="pilihan = int (input_str)" style="rounded=0;whiteSpace=wrap;html=1;" vertex="1" parent="1">
          <mxGeometry x="3620" y="1850" width="120" height="60" as="geometry" />
        </mxCell>
        <mxCell id="1Rzcqz73caveoxo0MW48-390" value="" style="edgeStyle=orthogonalEdgeStyle;rounded=0;orthogonalLoop=1;jettySize=auto;html=1;" edge="1" parent="1" source="1Rzcqz73caveoxo0MW48-386" target="1Rzcqz73caveoxo0MW48-389">
          <mxGeometry relative="1" as="geometry" />
        </mxCell>
        <mxCell id="1Rzcqz73caveoxo0MW48-412" value="true" style="edgeLabel;html=1;align=center;verticalAlign=middle;resizable=0;points=[];" vertex="1" connectable="0" parent="1Rzcqz73caveoxo0MW48-390">
          <mxGeometry x="-0.0556" y="1" relative="1" as="geometry">
            <mxPoint as="offset" />
          </mxGeometry>
        </mxCell>
        <mxCell id="1Rzcqz73caveoxo0MW48-400" value="" style="edgeStyle=orthogonalEdgeStyle;rounded=0;orthogonalLoop=1;jettySize=auto;html=1;" edge="1" parent="1" source="1Rzcqz73caveoxo0MW48-386" target="1Rzcqz73caveoxo0MW48-399">
          <mxGeometry relative="1" as="geometry" />
        </mxCell>
        <mxCell id="1Rzcqz73caveoxo0MW48-410" value="false" style="edgeLabel;html=1;align=center;verticalAlign=middle;resizable=0;points=[];" vertex="1" connectable="0" parent="1Rzcqz73caveoxo0MW48-400">
          <mxGeometry x="-0.163" y="-1" relative="1" as="geometry">
            <mxPoint as="offset" />
          </mxGeometry>
        </mxCell>
        <mxCell id="1Rzcqz73caveoxo0MW48-386" value="&lt;div style=&quot;font-size: 14px; line-height: 19px; white-space: pre;&quot;&gt;min_nilai &amp;lt;= pilihan&lt;/div&gt;&lt;div style=&quot;font-size: 14px; line-height: 19px; white-space: pre;&quot;&gt;&amp;lt;= max_nilai&lt;/div&gt;" style="rhombus;whiteSpace=wrap;html=1;" vertex="1" parent="1">
          <mxGeometry x="3580" y="1970" width="200" height="120" as="geometry" />
        </mxCell>
        <mxCell id="1Rzcqz73caveoxo0MW48-403" value="" style="edgeStyle=orthogonalEdgeStyle;rounded=0;orthogonalLoop=1;jettySize=auto;html=1;" edge="1" parent="1" source="1Rzcqz73caveoxo0MW48-389" target="1Rzcqz73caveoxo0MW48-402">
          <mxGeometry relative="1" as="geometry" />
        </mxCell>
        <mxCell id="1Rzcqz73caveoxo0MW48-389" value="pilihan" style="shape=parallelogram;perimeter=parallelogramPerimeter;whiteSpace=wrap;html=1;fixedSize=1;" vertex="1" parent="1">
          <mxGeometry x="3620" y="2178" width="120" height="60" as="geometry" />
        </mxCell>
        <mxCell id="1Rzcqz73caveoxo0MW48-392" value="" style="endArrow=classic;html=1;rounded=0;entryX=0;entryY=0.25;entryDx=0;entryDy=0;" edge="1" parent="1" target="1Rzcqz73caveoxo0MW48-389">
          <mxGeometry width="50" height="50" relative="1" as="geometry">
            <mxPoint x="3600" y="2196" as="sourcePoint" />
            <mxPoint x="3625" y="2188" as="targetPoint" />
          </mxGeometry>
        </mxCell>
        <mxCell id="1Rzcqz73caveoxo0MW48-401" style="edgeStyle=orthogonalEdgeStyle;rounded=0;orthogonalLoop=1;jettySize=auto;html=1;exitX=1;exitY=1;exitDx=0;exitDy=0;" edge="1" parent="1" source="1Rzcqz73caveoxo0MW48-399">
          <mxGeometry relative="1" as="geometry">
            <mxPoint x="3991" y="2051" as="targetPoint" />
          </mxGeometry>
        </mxCell>
        <mxCell id="1Rzcqz73caveoxo0MW48-405" style="edgeStyle=orthogonalEdgeStyle;rounded=0;orthogonalLoop=1;jettySize=auto;html=1;exitX=1;exitY=0.5;exitDx=0;exitDy=0;entryX=1;entryY=0.5;entryDx=0;entryDy=0;" edge="1" parent="1" source="1Rzcqz73caveoxo0MW48-399" target="1Rzcqz73caveoxo0MW48-385">
          <mxGeometry relative="1" as="geometry">
            <Array as="points">
              <mxPoint x="4090" y="2030" />
              <mxPoint x="4090" y="1880" />
            </Array>
          </mxGeometry>
        </mxCell>
        <mxCell id="1Rzcqz73caveoxo0MW48-399" value="output opsi&amp;nbsp;&lt;div&gt;tidak valid&lt;/div&gt;" style="shape=parallelogram;perimeter=parallelogramPerimeter;whiteSpace=wrap;html=1;fixedSize=1;" vertex="1" parent="1">
          <mxGeometry x="3850" y="2000" width="120" height="60" as="geometry" />
        </mxCell>
        <mxCell id="1Rzcqz73caveoxo0MW48-402" value="end" style="ellipse;whiteSpace=wrap;html=1;" vertex="1" parent="1">
          <mxGeometry x="3620" y="2320" width="120" height="80" as="geometry" />
        </mxCell>
        <mxCell id="1Rzcqz73caveoxo0MW48-406" value="" style="endArrow=classic;html=1;rounded=0;entryX=0;entryY=0.25;entryDx=0;entryDy=0;" edge="1" parent="1" target="1Rzcqz73caveoxo0MW48-379">
          <mxGeometry width="50" height="50" relative="1" as="geometry">
            <mxPoint x="3590" y="1622" as="sourcePoint" />
            <mxPoint x="3590" y="1618" as="targetPoint" />
          </mxGeometry>
        </mxCell>
        <mxCell id="1Rzcqz73caveoxo0MW48-407" value="" style="endArrow=classic;html=1;rounded=0;entryX=0;entryY=0.25;entryDx=0;entryDy=0;" edge="1" parent="1" target="1Rzcqz73caveoxo0MW48-378">
          <mxGeometry width="50" height="50" relative="1" as="geometry">
            <mxPoint x="3550" y="1521" as="sourcePoint" />
            <mxPoint x="3575" y="1514" as="targetPoint" />
          </mxGeometry>
        </mxCell>
      </root>
    </mxGraphModel>
  </diagram>
</mxfile>
